u2194_ 600 - 40.ufo
<glyph name="dollar" format="1">
  <advance width="781"/>
  <unicode hex="0024"/>
  <outline>
    <contour>
      <point x="351" y="359" type="line"/>
      <point x="263" y="410" type="line"/>
      <point x="351" y="440" type="line"/>
    </contour>
    <contour>
      <point x="490" y="184" type="line"/>
      <point x="431" y="193" type="line"/>
      <point x="431" y="219" type="line"/>
    </contour>
    <contour>
      <point x="431" y="-1" type="curve" smooth="yes"/>
      <point x="431" y="112" type="line"/>
      <point x="679" y="78" type="line" smooth="yes"/>
      <point x="725" y="72"/>
      <point x="744" y="129"/>
      <point x="704" y="152" type="curve" smooth="yes"/>
      <point x="431" y="312" type="line"/>
      <point x="431" y="468" type="line"/>
      <point x="704" y="561" type="line" smooth="yes"/>
      <point x="724" y="568"/>
      <point x="736" y="592"/>
      <point x="729" y="612" type="curve" smooth="yes"/>
      <point x="722" y="632"/>
      <point x="698" y="644"/>
      <point x="678" y="637" type="curve" smooth="yes"/>
      <point x="431" y="552" type="line"/>
      <point x="431" y="799" type="line" smooth="yes"/>
      <point x="431" y="821"/>
      <point x="413" y="839"/>
      <point x="391" y="839" type="curve" smooth="yes"/>
      <point x="369" y="839"/>
      <point x="351" y="821"/>
      <point x="351" y="799" type="curve" smooth="yes"/>
      <point x="351" y="525" type="line"/>
      <point x="154" y="458" type="line" smooth="yes"/>
      <point x="119" y="446"/>
      <point x="115" y="404"/>
      <point x="147" y="385" type="curve" smooth="yes"/>
      <point x="351" y="266" type="line"/>
      <point x="351" y="204" type="line"/>
      <point x="95" y="239" type="line" smooth="yes"/>
      <point x="74" y="242"/>
      <point x="53" y="226"/>
      <point x="50" y="204" type="curve" smooth="yes"/>
      <point x="47" y="183"/>
      <point x="63" y="162"/>
      <point x="85" y="159" type="curve" smooth="yes"/>
      <point x="351" y="123" type="line"/>
      <point x="351" y="-1" type="line" smooth="yes"/>
      <point x="351" y="-23"/>
      <point x="369" y="-41"/>
      <point x="391" y="-41" type="curve" smooth="yes"/>
      <point x="413" y="-41"/>
      <point x="431" y="-23"/>
    </contour>
  </outline>
</glyph>
<glyph name="ampersand" format="1">
  <advance width="581"/>
  <unicode hex="0026"/>
  <outline>
    <contour>
      <point x="515" y="-31" type="curve" smooth="yes"/>
      <point x="532" y="-18"/>
      <point x="536" y="8"/>
      <point x="523" y="25" type="curve" smooth="yes"/>
      <point x="271" y="361" type="line"/>
      <point x="490" y="360" type="line" smooth="yes"/>
      <point x="511" y="360"/>
      <point x="530" y="378"/>
      <point x="530" y="400" type="curve" smooth="yes"/>
      <point x="530" y="421"/>
      <point x="512" y="440"/>
      <point x="490" y="440" type="curve" smooth="yes"/>
      <point x="90" y="441" type="line" smooth="yes"/>
      <point x="69" y="441"/>
      <point x="50" y="423"/>
      <point x="50" y="401" type="curve" smooth="yes"/>
      <point x="50" y="380"/>
      <point x="68" y="361"/>
      <point x="90" y="361" type="curve" smooth="yes"/>
      <point x="171" y="361" type="line"/>
      <point x="459" y="-23" type="line" smooth="yes"/>
      <point x="472" y="-40"/>
      <point x="498" y="-44"/>
    </contour>
  </outline>
</glyph>
<glyph name="plus" format="1">
  <advance width="580"/>
  <unicode hex="002B"/>
  <outline>
    <contour>
      <point x="290" y="82" type="curve" smooth="yes"/>
      <point x="312" y="82"/>
      <point x="330" y="100"/>
      <point x="330" y="122" type="curve" smooth="yes"/>
      <point x="330" y="282" type="line"/>
      <point x="490" y="282" type="line" smooth="yes"/>
      <point x="512" y="282"/>
      <point x="530" y="300"/>
      <point x="530" y="322" type="curve" smooth="yes"/>
      <point x="530" y="344"/>
      <point x="512" y="362"/>
      <point x="490" y="362" type="curve" smooth="yes"/>
      <point x="330" y="362" type="line"/>
      <point x="330" y="522" type="line" smooth="yes"/>
      <point x="330" y="544"/>
      <point x="312" y="562"/>
      <point x="290" y="562" type="curve" smooth="yes"/>
      <point x="268" y="562"/>
      <point x="250" y="544"/>
      <point x="250" y="522" type="curve" smooth="yes"/>
      <point x="250" y="362" type="line"/>
      <point x="90" y="362" type="line" smooth="yes"/>
      <point x="68" y="362"/>
      <point x="50" y="344"/>
      <point x="50" y="322" type="curve" smooth="yes"/>
      <point x="50" y="300"/>
      <point x="68" y="282"/>
      <point x="90" y="282" type="curve" smooth="yes"/>
      <point x="250" y="282" type="line"/>
      <point x="250" y="122" type="line" smooth="yes"/>
      <point x="250" y="100"/>
      <point x="268" y="82"/>
    </contour>
  </outline>
</glyph>
<glyph name="zero" format="1">
  <advance width="780"/>
  <unicode hex="0030"/>
  <outline>
    <contour>
      <point x="255" y="288" type="line"/>
      <point x="175" y="181" type="line"/>
      <point x="133" y="225" type="line"/>
      <point x="236" y="725" type="line"/>
      <point x="462" y="560" type="line"/>
    </contour>
    <contour>
      <point x="319" y="239" type="line"/>
      <point x="526" y="512" type="line"/>
      <point x="630" y="436" type="line"/>
      <point x="290" y="62" type="line"/>
      <point x="231" y="123" type="line"/>
    </contour>
    <contour>
      <point x="320" y="-27" type="curve" smooth="yes"/>
      <point x="323" y="-24"/>
      <point x="325" y="-20"/>
      <point x="327" y="-16" type="curve"/>
      <point x="720" y="415" type="line" smooth="yes"/>
      <point x="736" y="433"/>
      <point x="733" y="460"/>
      <point x="714" y="474" type="curve" smooth="yes"/>
      <point x="574" y="576" type="line"/>
      <point x="676" y="710" type="line" smooth="yes"/>
      <point x="689" y="727"/>
      <point x="685" y="753"/>
      <point x="668" y="766" type="curve" smooth="yes"/>
      <point x="651" y="779"/>
      <point x="625" y="775"/>
      <point x="612" y="758" type="curve" smooth="yes"/>
      <point x="510" y="623" type="line"/>
      <point x="233" y="826" type="line" smooth="yes"/>
      <point x="208" y="845"/>
      <point x="176" y="833"/>
      <point x="170" y="802" type="curve" smooth="yes"/>
      <point x="51" y="220" type="line" smooth="yes"/>
      <point x="48" y="209"/>
      <point x="53" y="193"/>
      <point x="61" y="184" type="curve" smooth="yes"/>
      <point x="126" y="117" type="line"/>
      <point x="98" y="80" type="line" smooth="yes"/>
      <point x="85" y="63"/>
      <point x="89" y="37"/>
      <point x="106" y="24" type="curve" smooth="yes"/>
      <point x="123" y="11"/>
      <point x="149" y="15"/>
      <point x="162" y="32" type="curve" smooth="yes"/>
      <point x="182" y="59" type="line"/>
      <point x="255" y="-18" type="line"/>
      <point x="257" y="-21"/>
      <point x="260" y="-25"/>
      <point x="263" y="-28" type="curve" smooth="yes"/>
      <point x="271" y="-35"/>
      <point x="281" y="-38"/>
      <point x="290" y="-38" type="curve"/>
      <point x="291" y="-38"/>
      <point x="291" y="-38"/>
      <point x="291" y="-38" type="curve"/>
      <point x="291" y="-38"/>
      <point x="291" y="-38"/>
      <point x="292" y="-38" type="curve"/>
      <point x="302" y="-38"/>
      <point x="312" y="-34"/>
    </contour>
  </outline>
</glyph>
<glyph name="one" format="1">
  <advance width="780"/>
  <unicode hex="0031"/>
  <outline>
    <contour>
      <point x="90" y="-39" type="curve" smooth="yes"/>
      <point x="690" y="-39" type="line" smooth="yes"/>
      <point x="712" y="-39"/>
      <point x="730" y="-21"/>
      <point x="730" y="1" type="curve" smooth="yes"/>
      <point x="730" y="23"/>
      <point x="712" y="41"/>
      <point x="690" y="41" type="curve" smooth="yes"/>
      <point x="247" y="41" type="line"/>
      <point x="428" y="548" type="line" smooth="yes"/>
      <point x="437" y="573"/>
      <point x="422" y="597"/>
      <point x="395" y="601" type="curve" smooth="yes"/>
      <point x="95" y="641" type="line" smooth="yes"/>
      <point x="74" y="644"/>
      <point x="53" y="628"/>
      <point x="50" y="606" type="curve" smooth="yes"/>
      <point x="47" y="585"/>
      <point x="63" y="564"/>
      <point x="85" y="561" type="curve" smooth="yes"/>
      <point x="336" y="528" type="line"/>
      <point x="162" y="41" type="line"/>
      <point x="90" y="41" type="line" smooth="yes"/>
      <point x="68" y="41"/>
      <point x="50" y="23"/>
      <point x="50" y="1" type="curve" smooth="yes"/>
      <point x="50" y="-21"/>
      <point x="68" y="-39"/>
    </contour>
  </outline>
</glyph>
<glyph name="two" format="1">
  <advance width="782"/>
  <unicode hex="0032"/>
  <outline>
    <contour>
      <point x="92" y="-40" type="curve" smooth="yes"/>
      <point x="692" y="-40" type="line" smooth="yes"/>
      <point x="714" y="-40"/>
      <point x="732" y="-22"/>
      <point x="732" y="0" type="curve" smooth="yes"/>
      <point x="732" y="22"/>
      <point x="714" y="40"/>
      <point x="692" y="40" type="curve" smooth="yes"/>
      <point x="196" y="40" type="line"/>
      <point x="562" y="371" type="line" smooth="yes"/>
      <point x="585" y="392"/>
      <point x="580" y="425"/>
      <point x="552" y="438" type="curve" smooth="yes"/>
      <point x="108" y="636" type="line" smooth="yes"/>
      <point x="89" y="645"/>
      <point x="64" y="636"/>
      <point x="56" y="616" type="curve" smooth="yes"/>
      <point x="47" y="597"/>
      <point x="56" y="572"/>
      <point x="76" y="564" type="curve" smooth="yes"/>
      <point x="463" y="390" type="line"/>
      <point x="65" y="30" type="line" smooth="yes"/>
      <point x="36" y="3"/>
      <point x="52" y="-40"/>
    </contour>
  </outline>
</glyph>
<glyph name="three" format="1">
  <advance width="780"/>
  <unicode hex="0033"/>
  <outline>
    <contour>
      <point x="629" y="6" type="curve" smooth="yes"/>
      <point x="729" y="594" type="line" smooth="yes"/>
      <point x="734" y="620"/>
      <point x="716" y="641"/>
      <point x="690" y="641" type="curve" smooth="yes"/>
      <point x="90" y="641" type="line" smooth="yes"/>
      <point x="68" y="641"/>
      <point x="50" y="623"/>
      <point x="50" y="601" type="curve" smooth="yes"/>
      <point x="50" y="579"/>
      <point x="68" y="561"/>
      <point x="90" y="561" type="curve" smooth="yes"/>
      <point x="643" y="561" type="line"/>
      <point x="558" y="67" type="line"/>
      <point x="104" y="238" type="line" smooth="yes"/>
      <point x="84" y="246"/>
      <point x="60" y="235"/>
      <point x="53" y="215" type="curve" smooth="yes"/>
      <point x="45" y="195"/>
      <point x="56" y="171"/>
      <point x="76" y="164" type="curve" smooth="yes"/>
      <point x="575" y="-25" type="line" smooth="yes"/>
      <point x="600" y="-34"/>
      <point x="624" y="-20"/>
    </contour>
  </outline>
</glyph>
<glyph name="four" format="1">
  <advance width="740"/>
  <unicode hex="0034"/>
  <outline>
    <contour>
      <point x="650" y="-39" type="curve" smooth="yes"/>
      <point x="672" y="-39"/>
      <point x="690" y="-21"/>
      <point x="690" y="1" type="curve" smooth="yes"/>
      <point x="690" y="600" type="line" smooth="yes"/>
      <point x="690" y="622"/>
      <point x="672" y="640"/>
      <point x="650" y="640" type="curve" smooth="yes"/>
      <point x="628" y="640"/>
      <point x="610" y="622"/>
      <point x="610" y="600" type="curve" smooth="yes"/>
      <point x="610" y="157" type="line"/>
      <point x="147" y="322" type="line"/>
      <point x="385" y="782" type="line" smooth="yes"/>
      <point x="395" y="801"/>
      <point x="388" y="826"/>
      <point x="368" y="835" type="curve" smooth="yes"/>
      <point x="349" y="845"/>
      <point x="324" y="838"/>
      <point x="315" y="818" type="curve" smooth="yes"/>
      <point x="55" y="318" type="line" smooth="yes"/>
      <point x="43" y="296"/>
      <point x="53" y="271"/>
      <point x="77" y="262" type="curve" smooth="yes"/>
      <point x="610" y="72" type="line"/>
      <point x="610" y="1" type="line" smooth="yes"/>
      <point x="610" y="-21"/>
      <point x="628" y="-39"/>
    </contour>
  </outline>
</glyph>
<glyph name="five" format="1">
  <advance width="782"/>
  <unicode hex="0035"/>
  <outline>
    <contour>
      <point x="90" y="161" type="curve" smooth="yes"/>
      <point x="690" y="161" type="line" smooth="yes"/>
      <point x="737" y="161"/>
      <point x="748" y="223"/>
      <point x="703" y="239" type="curve" smooth="yes"/>
      <point x="206" y="416" type="line"/>
      <point x="585" y="761" type="line"/>
      <point x="690" y="761" type="line" smooth="yes"/>
      <point x="712" y="761"/>
      <point x="730" y="779"/>
      <point x="730" y="801" type="curve" smooth="yes"/>
      <point x="730" y="823"/>
      <point x="712" y="841"/>
      <point x="690" y="841" type="curve" smooth="yes"/>
      <point x="570" y="841" type="line" smooth="yes"/>
      <point x="561" y="841"/>
      <point x="549" y="836"/>
      <point x="543" y="831" type="curve" smooth="yes"/>
      <point x="103" y="431" type="line" smooth="yes"/>
      <point x="79" y="409"/>
      <point x="86" y="374"/>
      <point x="117" y="363" type="curve" smooth="yes"/>
      <point x="459" y="241" type="line"/>
      <point x="90" y="241" type="line" smooth="yes"/>
      <point x="68" y="241"/>
      <point x="50" y="223"/>
      <point x="50" y="201" type="curve" smooth="yes"/>
      <point x="50" y="179"/>
      <point x="68" y="161"/>
    </contour>
  </outline>
</glyph>
<glyph name="six" format="1">
  <advance width="782"/>
  <unicode hex="0036"/>
  <outline>
    <contour>
      <point x="651" y="401" type="curve" smooth="yes"/>
      <point x="272" y="581" type="line"/>
      <point x="659" y="579" type="line"/>
      <point x="666" y="568"/>
      <point x="679" y="561"/>
      <point x="693" y="561" type="curve" smooth="yes"/>
      <point x="714" y="561"/>
      <point x="732" y="580"/>
      <point x="732" y="602" type="curve" smooth="yes"/>
      <point x="732" y="620" type="line" smooth="yes"/>
      <point x="731" y="641"/>
      <point x="713" y="659"/>
      <point x="692" y="659" type="curve" smooth="yes"/>
      <point x="92" y="662" type="line" smooth="yes"/>
      <point x="59" y="662"/>
      <point x="43" y="632"/>
      <point x="53" y="608" type="curve"/>
      <point x="50" y="591"/>
      <point x="59" y="572"/>
      <point x="76" y="564" type="curve" smooth="yes"/>
      <point x="618" y="328" type="line" smooth="yes"/>
      <point x="666" y="307"/>
      <point x="698" y="379"/>
    </contour>
  </outline>
</glyph>
<glyph name="seven" format="1">
  <advance width="707"/>
  <unicode hex="0037"/>
  <outline>
    <contour>
      <point x="323" y="-25" type="curve" smooth="yes"/>
      <point x="650" y="467" type="line" smooth="yes"/>
      <point x="663" y="486"/>
      <point x="657" y="511"/>
      <point x="638" y="523" type="curve" smooth="yes"/>
      <point x="131" y="831" type="line" smooth="yes"/>
      <point x="125" y="834"/>
      <point x="116" y="837"/>
      <point x="110" y="837" type="curve" smooth="yes"/>
      <point x="90" y="837" type="line" smooth="yes"/>
      <point x="68" y="837"/>
      <point x="50" y="819"/>
      <point x="50" y="797" type="curve" smooth="yes"/>
      <point x="50" y="775"/>
      <point x="68" y="757"/>
      <point x="90" y="757" type="curve" smooth="yes"/>
      <point x="99" y="757" type="line"/>
      <point x="561" y="476" type="line"/>
      <point x="257" y="19" type="line" smooth="yes"/>
      <point x="245" y="1"/>
      <point x="250" y="-24"/>
      <point x="268" y="-36" type="curve" smooth="yes"/>
      <point x="286" y="-48"/>
      <point x="311" y="-43"/>
    </contour>
  </outline>
</glyph>
<glyph name="nine" format="1">
  <advance width="782"/>
  <unicode hex="0039"/>
  <outline>
    <contour>
      <point x="690" y="139" type="line" smooth="yes"/>
      <point x="723" y="139"/>
      <point x="739" y="169"/>
      <point x="729" y="193" type="curve"/>
      <point x="732" y="210"/>
      <point x="723" y="229"/>
      <point x="706" y="237" type="curve" smooth="yes"/>
      <point x="164" y="473" type="line" smooth="yes"/>
      <point x="116" y="494"/>
      <point x="84" y="422"/>
      <point x="131" y="400" type="curve" smooth="yes"/>
      <point x="510" y="220" type="line"/>
      <point x="123" y="222" type="line"/>
      <point x="116" y="233"/>
      <point x="103" y="240"/>
      <point x="89" y="240" type="curve" smooth="yes"/>
      <point x="68" y="240"/>
      <point x="50" y="221"/>
      <point x="50" y="199" type="curve" smooth="yes"/>
      <point x="50" y="181" type="line" smooth="yes"/>
      <point x="51" y="160"/>
      <point x="69" y="142"/>
      <point x="90" y="142" type="curve" smooth="yes"/>
    </contour>
  </outline>
</glyph>
<glyph name="semicolon" format="1">
  <advance width="280"/>
  <unicode hex="003B"/>
  <outline>
    <contour>
      <point x="190" y="543" type="curve" smooth="yes"/>
      <point x="212" y="543"/>
      <point x="230" y="561"/>
      <point x="230" y="583" type="curve" smooth="yes"/>
      <point x="230" y="592" type="line" smooth="yes"/>
      <point x="230" y="614"/>
      <point x="212" y="632"/>
      <point x="190" y="632" type="curve" smooth="yes"/>
      <point x="168" y="632"/>
      <point x="150" y="614"/>
      <point x="150" y="592" type="curve" smooth="yes"/>
      <point x="150" y="583" type="line" smooth="yes"/>
      <point x="150" y="561"/>
      <point x="168" y="543"/>
    </contour>
    <contour>
      <point x="208" y="228" type="curve" smooth="yes"/>
      <point x="189" y="237"/>
      <point x="164" y="229"/>
      <point x="154" y="210" type="curve" smooth="yes"/>
      <point x="54" y="10" type="line" smooth="yes"/>
      <point x="45" y="-9"/>
      <point x="53" y="-34"/>
      <point x="72" y="-44" type="curve" smooth="yes"/>
      <point x="91" y="-53"/>
      <point x="116" y="-45"/>
      <point x="126" y="-26" type="curve" smooth="yes"/>
      <point x="226" y="174" type="line" smooth="yes"/>
      <point x="235" y="193"/>
      <point x="227" y="218"/>
    </contour>
  </outline>
</glyph>
<glyph name="greater" format="1">
  <advance width="180"/>
  <unicode hex="003E"/>
  <outline>
    <contour>
      <point x="90" y="560" type="curve" smooth="yes"/>
      <point x="68" y="560"/>
      <point x="50" y="542"/>
      <point x="50" y="520" type="curve" smooth="yes"/>
      <point x="50" y="120" type="line" smooth="yes"/>
      <point x="50" y="98"/>
      <point x="68" y="80"/>
      <point x="90" y="80" type="curve" smooth="yes"/>
      <point x="112" y="80"/>
      <point x="130" y="98"/>
      <point x="130" y="120" type="curve" smooth="yes"/>
      <point x="130" y="520" type="line" smooth="yes"/>
      <point x="130" y="542"/>
      <point x="112" y="560"/>
    </contour>
  </outline>
</glyph>
<glyph name="question" format="1">
  <advance width="652"/>
  <unicode hex="003F"/>
  <outline>
    <contour>
      <point x="325" y="182" type="curve" smooth="yes"/>
      <point x="597" y="712" type="line" smooth="yes"/>
      <point x="614" y="746"/>
      <point x="587" y="779"/>
      <point x="551" y="769" type="curve" smooth="yes"/>
      <point x="79" y="638" type="line" smooth="yes"/>
      <point x="58" y="632"/>
      <point x="46" y="609"/>
      <point x="51" y="588" type="curve" smooth="yes"/>
      <point x="57" y="567"/>
      <point x="80" y="555"/>
      <point x="101" y="560" type="curve" smooth="yes"/>
      <point x="484" y="667" type="line"/>
      <point x="253" y="218" type="line" smooth="yes"/>
      <point x="244" y="199"/>
      <point x="252" y="174"/>
      <point x="271" y="164" type="curve" smooth="yes"/>
      <point x="290" y="155"/>
      <point x="315" y="163"/>
    </contour>
    <contour>
      <point x="289" y="-40" type="curve" smooth="yes"/>
      <point x="311" y="-40"/>
      <point x="329" y="-22"/>
      <point x="329" y="0" type="curve" smooth="yes"/>
      <point x="329" y="11" type="line" smooth="yes"/>
      <point x="329" y="33"/>
      <point x="311" y="51"/>
      <point x="289" y="51" type="curve" smooth="yes"/>
      <point x="267" y="51"/>
      <point x="249" y="33"/>
      <point x="249" y="11" type="curve" smooth="yes"/>
      <point x="249" y="0" type="line" smooth="yes"/>
      <point x="249" y="-22"/>
      <point x="267" y="-40"/>
    </contour>
  </outline>
</glyph>
<glyph name="at" format="1">
  <advance width="670"/>
  <unicode hex="0040"/>
  <outline>
    <contour>
      <point x="517" y="-72" type="curve" smooth="yes"/>
      <point x="533" y="-57"/>
      <point x="534" y="-31"/>
      <point x="520" y="-15" type="curve" smooth="yes"/>
      <point x="150" y="394" type="line"/>
      <point x="519" y="655" type="line"/>
      <point x="506" y="594" type="line"/>
      <point x="506" y="595"/>
      <point x="506" y="595"/>
      <point x="505" y="595" type="curve"/>
      <point x="504" y="595"/>
      <point x="503" y="596"/>
      <point x="502" y="596" type="curve"/>
      <point x="501" y="596"/>
      <point x="501" y="597"/>
      <point x="500" y="597" type="curve"/>
      <point x="495" y="598"/>
      <point x="496" y="598"/>
      <point x="497" y="597" type="curve"/>
      <point x="492" y="598"/>
      <point x="493" y="598"/>
      <point x="495" y="598" type="curve"/>
      <point x="494" y="598" type="line" smooth="yes"/>
      <point x="491" y="598" type="line"/>
      <point x="490" y="598" type="line" smooth="yes"/>
      <point x="489" y="598" type="line"/>
      <point x="492" y="598"/>
      <point x="490" y="598"/>
      <point x="489" y="598" type="curve"/>
      <point x="488" y="598"/>
      <point x="486" y="598"/>
      <point x="484" y="598" type="curve"/>
      <point x="484" y="597"/>
      <point x="483" y="597"/>
      <point x="483" y="597" type="curve"/>
      <point x="482" y="597"/>
      <point x="480" y="597"/>
      <point x="479" y="596" type="curve"/>
      <point x="479" y="596"/>
      <point x="478" y="596"/>
      <point x="478" y="596" type="curve"/>
      <point x="477" y="596"/>
      <point x="475" y="595"/>
      <point x="474" y="594" type="curve"/>
      <point x="474" y="594"/>
      <point x="473" y="594"/>
      <point x="473" y="594" type="curve"/>
      <point x="472" y="593"/>
      <point x="471" y="593"/>
      <point x="470" y="592" type="curve"/>
      <point x="469" y="592"/>
      <point x="469" y="592"/>
      <point x="468" y="591" type="curve"/>
      <point x="467" y="591"/>
      <point x="466" y="590"/>
      <point x="465" y="589" type="curve"/>
      <point x="465" y="589"/>
      <point x="464" y="588"/>
      <point x="464" y="588" type="curve"/>
      <point x="463" y="587"/>
      <point x="462" y="587"/>
      <point x="462" y="586" type="curve"/>
      <point x="461" y="585"/>
      <point x="460" y="584"/>
      <point x="460" y="583" type="curve"/>
      <point x="459" y="583"/>
      <point x="459" y="583"/>
      <point x="458" y="582" type="curve"/>
      <point x="458" y="581"/>
      <point x="457" y="580"/>
      <point x="456" y="579" type="curve"/>
      <point x="456" y="579"/>
      <point x="456" y="578"/>
      <point x="456" y="578" type="curve"/>
      <point x="455" y="577"/>
      <point x="454" y="576"/>
      <point x="454" y="574" type="curve"/>
      <point x="454" y="574"/>
      <point x="453" y="574"/>
      <point x="453" y="573" type="curve"/>
      <point x="453" y="572"/>
      <point x="452" y="571"/>
      <point x="452" y="570" type="curve"/>
      <point x="452" y="569"/>
      <point x="452" y="569"/>
      <point x="451" y="568" type="curve"/>
      <point x="450" y="563"/>
      <point x="450" y="564"/>
      <point x="451" y="565" type="curve"/>
      <point x="450" y="560"/>
      <point x="450" y="561"/>
      <point x="450" y="563" type="curve"/>
      <point x="450" y="562" type="line" smooth="yes"/>
      <point x="415" y="164" type="line" smooth="yes"/>
      <point x="411" y="128"/>
      <point x="446" y="112"/>
      <point x="471" y="123" type="curve"/>
      <point x="477" y="120"/>
      <point x="483" y="118"/>
      <point x="490" y="118" type="curve" smooth="yes"/>
      <point x="512" y="118"/>
      <point x="530" y="136"/>
      <point x="530" y="158" type="curve" smooth="yes"/>
      <point x="530" y="323" type="line"/>
      <point x="618" y="738" type="line" smooth="yes"/>
      <point x="627" y="777"/>
      <point x="589" y="802"/>
      <point x="556" y="779" type="curve" smooth="yes"/>
      <point x="67" y="433" type="line" smooth="yes"/>
      <point x="47" y="419"/>
      <point x="44" y="392"/>
      <point x="60" y="374" type="curve" smooth="yes"/>
      <point x="460" y="-69" type="line" smooth="yes"/>
      <point x="475" y="-85"/>
      <point x="501" y="-86"/>
    </contour>
  </outline>
</glyph>
<glyph name="A" format="1">
  <advance width="768"/>
  <unicode hex="0041"/>
  <outline>
    <contour>
      <point x="678" y="-44" type="curve" smooth="yes"/>
      <point x="700" y="-44"/>
      <point x="718" y="-26"/>
      <point x="718" y="-4" type="curve" smooth="yes"/>
      <point x="718" y="360" type="line" smooth="yes"/>
      <point x="718" y="369"/>
      <point x="713" y="381"/>
      <point x="707" y="388" type="curve" smooth="yes"/>
      <point x="305" y="823" type="line" smooth="yes"/>
      <point x="283" y="847"/>
      <point x="248" y="840"/>
      <point x="238" y="808" type="curve" smooth="yes"/>
      <point x="52" y="238" type="line" smooth="yes"/>
      <point x="42" y="207"/>
      <point x="66" y="180"/>
      <point x="98" y="187" type="curve" smooth="yes"/>
      <point x="638" y="297" type="line"/>
      <point x="638" y="-4" type="line" smooth="yes"/>
      <point x="638" y="-26"/>
      <point x="656" y="-44"/>
    </contour>
    <contour>
      <point x="150" y="279" type="line"/>
      <point x="293" y="719" type="line"/>
      <point x="612" y="373" type="line"/>
    </contour>
  </outline>
</glyph>
<glyph name="F" format="1">
  <advance width="779"/>
  <unicode hex="0046"/>
  <outline>
    <contour>
      <point x="130" y="-6" type="curve" smooth="yes"/>
      <point x="184" y="334" type="line"/>
      <point x="705" y="565" type="line" smooth="yes"/>
      <point x="725" y="574"/>
      <point x="734" y="598"/>
      <point x="726" y="618" type="curve" smooth="yes"/>
      <point x="717" y="638"/>
      <point x="693" y="647"/>
      <point x="673" y="639" type="curve" smooth="yes"/>
      <point x="131" y="399" type="line" smooth="yes"/>
      <point x="120" y="394"/>
      <point x="110" y="380"/>
      <point x="108" y="368" type="curve" smooth="yes"/>
      <point x="50" y="6" type="line" smooth="yes"/>
      <point x="47" y="-15"/>
      <point x="62" y="-36"/>
      <point x="84" y="-40" type="curve" smooth="yes"/>
      <point x="105" y="-43"/>
      <point x="126" y="-28"/>
    </contour>
  </outline>
</glyph>
<glyph name="G" format="1">
  <advance width="776"/>
  <unicode hex="0047"/>
  <outline>
    <contour>
      <point x="257" y="575" type="curve" smooth="yes"/>
      <point x="603" y="255" type="line"/>
      <point x="142" y="140" type="line"/>
      <point x="131" y="641" type="line"/>
      <point x="250" y="624" type="line"/>
      <point x="240" y="609"/>
      <point x="243" y="587"/>
    </contour>
    <contour>
      <point x="113" y="50" type="curve" smooth="yes"/>
      <point x="694" y="195" type="line" smooth="yes"/>
      <point x="727" y="204"/>
      <point x="737" y="240"/>
      <point x="711" y="263" type="curve" smooth="yes"/>
      <point x="334" y="613" type="line"/>
      <point x="678" y="564" type="line" smooth="yes"/>
      <point x="700" y="561"/>
      <point x="721" y="577"/>
      <point x="724" y="598" type="curve" smooth="yes"/>
      <point x="727" y="620"/>
      <point x="711" y="641"/>
      <point x="690" y="644" type="curve" smooth="yes"/>
      <point x="96" y="727" type="line" smooth="yes"/>
      <point x="70" y="730"/>
      <point x="50" y="712"/>
      <point x="50" y="686" type="curve" smooth="yes"/>
      <point x="63" y="88" type="line" smooth="yes"/>
      <point x="64" y="61"/>
      <point x="87" y="43"/>
    </contour>
  </outline>
</glyph>
<glyph name="H" format="1">
  <advance width="780"/>
  <unicode hex="0048"/>
  <outline>
    <contour>
      <point x="690" y="-44" type="curve" smooth="yes"/>
      <point x="712" y="-44"/>
      <point x="730" y="-26"/>
      <point x="730" y="-4" type="curve" smooth="yes"/>
      <point x="730" y="596" type="line" smooth="yes"/>
      <point x="730" y="627"/>
      <point x="702" y="645"/>
      <point x="674" y="633" type="curve" smooth="yes"/>
      <point x="177" y="412" type="line"/>
      <point x="130" y="801" type="line" smooth="yes"/>
      <point x="127" y="822"/>
      <point x="107" y="838"/>
      <point x="85" y="836" type="curve" smooth="yes"/>
      <point x="64" y="833"/>
      <point x="48" y="813"/>
      <point x="50" y="791" type="curve" smooth="yes"/>
      <point x="104" y="349" type="line" smooth="yes"/>
      <point x="107" y="320"/>
      <point x="133" y="305"/>
      <point x="159" y="317" type="curve" smooth="yes"/>
      <point x="650" y="535" type="line"/>
      <point x="650" y="-4" type="line" smooth="yes"/>
      <point x="650" y="-26"/>
      <point x="668" y="-44"/>
    </contour>
  </outline>
</glyph>
<glyph name="J" format="1">
  <advance width="779"/>
  <unicode hex="004A"/>
  <outline>
    <contour>
      <point x="118" y="-30" type="curve" smooth="yes"/>
      <point x="418" y="260" type="line" smooth="yes"/>
      <point x="420" y="262"/>
      <point x="423" y="266"/>
      <point x="424" y="268" type="curve" smooth="yes"/>
      <point x="724" y="779" type="line" smooth="yes"/>
      <point x="735" y="797"/>
      <point x="729" y="823"/>
      <point x="710" y="833" type="curve" smooth="yes"/>
      <point x="692" y="844"/>
      <point x="666" y="838"/>
      <point x="656" y="819" type="curve" smooth="yes"/>
      <point x="358" y="313" type="line"/>
      <point x="62" y="28" type="line" smooth="yes"/>
      <point x="47" y="13"/>
      <point x="46" y="-13"/>
      <point x="61" y="-29" type="curve" smooth="yes"/>
      <point x="76" y="-44"/>
      <point x="102" y="-45"/>
    </contour>
  </outline>
</glyph>
<glyph name="L" format="1">
  <advance width="780"/>
  <unicode hex="004C"/>
  <outline>
    <contour>
      <point x="650" y="-40" type="curve" smooth="yes"/>
      <point x="690" y="-40" type="line" smooth="yes"/>
      <point x="712" y="-40"/>
      <point x="730" y="-22"/>
      <point x="730" y="0" type="curve" smooth="yes"/>
      <point x="730" y="22"/>
      <point x="712" y="40"/>
      <point x="690" y="40" type="curve" smooth="yes"/>
      <point x="657" y="40" type="line"/>
      <point x="130" y="228" type="line"/>
      <point x="130" y="800" type="line" smooth="yes"/>
      <point x="130" y="822"/>
      <point x="112" y="840"/>
      <point x="90" y="840" type="curve" smooth="yes"/>
      <point x="68" y="840"/>
      <point x="50" y="822"/>
      <point x="50" y="800" type="curve" smooth="yes"/>
      <point x="50" y="200" type="line"/>
      <point x="50" y="184"/>
      <point x="62" y="168"/>
      <point x="77" y="162" type="curve" smooth="yes"/>
      <point x="637" y="-38" type="line" smooth="yes"/>
      <point x="640" y="-39"/>
      <point x="646" y="-40"/>
    </contour>
  </outline>
</glyph>
<glyph name="R" format="1">
  <advance width="780"/>
  <unicode hex="0052"/>
  <outline>
    <contour>
      <point x="725" y="-24" type="curve" smooth="yes"/>
      <point x="736" y="-6"/>
      <point x="730" y="20"/>
      <point x="711" y="30" type="curve" smooth="yes"/>
      <point x="426" y="198" type="line"/>
      <point x="515" y="264" type="line" smooth="yes"/>
      <point x="532" y="277"/>
      <point x="536" y="303"/>
      <point x="523" y="320" type="curve" smooth="yes"/>
      <point x="510" y="337"/>
      <point x="484" y="341"/>
      <point x="467" y="328" type="curve" smooth="yes"/>
      <point x="352" y="242" type="line"/>
      <point x="314" y="264" type="line"/>
      <point x="323" y="271"/>
      <point x="330" y="283"/>
      <point x="330" y="296" type="curve" smooth="yes"/>
      <point x="330" y="318"/>
      <point x="312" y="336"/>
      <point x="290" y="336" type="curve" smooth="yes"/>
      <point x="180" y="336" type="line" smooth="yes"/>
      <point x="136" y="336"/>
      <point x="122" y="284"/>
      <point x="160" y="262" type="curve" smooth="yes"/>
      <point x="282" y="190" type="line"/>
      <point x="66" y="28" type="line" smooth="yes"/>
      <point x="49" y="15"/>
      <point x="45" y="-11"/>
      <point x="58" y="-28" type="curve" smooth="yes"/>
      <point x="71" y="-45"/>
      <point x="97" y="-49"/>
      <point x="114" y="-36" type="curve" smooth="yes"/>
      <point x="357" y="146" type="line"/>
      <point x="671" y="-38" type="line" smooth="yes"/>
      <point x="689" y="-49"/>
      <point x="715" y="-43"/>
    </contour>
  </outline>
</glyph>
<glyph name="T" format="1">
  <advance width="480"/>
  <unicode hex="0054"/>
  <outline>
    <contour>
      <point x="390" y="-40" type="curve" smooth="yes"/>
      <point x="412" y="-40"/>
      <point x="430" y="-22"/>
      <point x="430" y="0" type="curve" smooth="yes"/>
      <point x="430" y="600" type="line" smooth="yes"/>
      <point x="430" y="612"/>
      <point x="422" y="627"/>
      <point x="412" y="633" type="curve" smooth="yes"/>
      <point x="112" y="833" type="line" smooth="yes"/>
      <point x="94" y="845"/>
      <point x="69" y="840"/>
      <point x="57" y="822" type="curve" smooth="yes"/>
      <point x="45" y="804"/>
      <point x="50" y="779"/>
      <point x="68" y="767" type="curve" smooth="yes"/>
      <point x="350" y="579" type="line"/>
      <point x="350" y="0" type="line" smooth="yes"/>
      <point x="350" y="-22"/>
      <point x="368" y="-40"/>
    </contour>
  </outline>
</glyph>
<glyph name="W" format="1">
  <advance width="780"/>
  <unicode hex="0057"/>
  <outline>
    <contour>
      <point x="690" y="-3" type="curve" smooth="yes"/>
      <point x="730" y="587" type="line"/>
      <point x="730" y="800" type="line" smooth="yes"/>
      <point x="730" y="822"/>
      <point x="712" y="840"/>
      <point x="690" y="840" type="curve" smooth="yes"/>
      <point x="668" y="840"/>
      <point x="650" y="822"/>
      <point x="650" y="800" type="curve" smooth="yes"/>
      <point x="650" y="593" type="line"/>
      <point x="614" y="55" type="line"/>
      <point x="130" y="228" type="line"/>
      <point x="130" y="800" type="line" smooth="yes"/>
      <point x="130" y="822"/>
      <point x="112" y="840"/>
      <point x="90" y="840" type="curve" smooth="yes"/>
      <point x="68" y="840"/>
      <point x="50" y="822"/>
      <point x="50" y="800" type="curve" smooth="yes"/>
      <point x="50" y="200" type="line"/>
      <point x="50" y="184"/>
      <point x="62" y="168"/>
      <point x="77" y="162" type="curve" smooth="yes"/>
      <point x="637" y="-38" type="line" smooth="yes"/>
      <point x="663" y="-47"/>
      <point x="688" y="-31"/>
    </contour>
  </outline>
</glyph>
<glyph name="X" format="1">
  <advance width="779"/>
  <unicode hex="0058"/>
  <outline>
    <contour>
      <point x="127" y="-15" type="curve" smooth="yes"/>
      <point x="270" y="335" type="line"/>
      <point x="663" y="-29" type="line" smooth="yes"/>
      <point x="679" y="-44"/>
      <point x="705" y="-43"/>
      <point x="719" y="-27" type="curve" smooth="yes"/>
      <point x="734" y="-11"/>
      <point x="733" y="15"/>
      <point x="717" y="29" type="curve" smooth="yes"/>
      <point x="316" y="402" type="line"/>
      <point x="717" y="771" type="line" smooth="yes"/>
      <point x="733" y="785"/>
      <point x="734" y="811"/>
      <point x="719" y="827" type="curve" smooth="yes"/>
      <point x="705" y="843"/>
      <point x="679" y="844"/>
      <point x="663" y="829" type="curve" smooth="yes"/>
      <point x="272" y="470" type="line"/>
      <point x="127" y="815" type="line" smooth="yes"/>
      <point x="119" y="835"/>
      <point x="94" y="845"/>
      <point x="75" y="837" type="curve" smooth="yes"/>
      <point x="55" y="829"/>
      <point x="45" y="804"/>
      <point x="53" y="785" type="curve" smooth="yes"/>
      <point x="213" y="405" type="line"/>
      <point x="53" y="15" type="line" smooth="yes"/>
      <point x="45" y="-5"/>
      <point x="55" y="-29"/>
      <point x="75" y="-37" type="curve" smooth="yes"/>
      <point x="95" y="-45"/>
      <point x="119" y="-35"/>
    </contour>
  </outline>
</glyph>
<glyph name="Y" format="1">
  <advance width="502"/>
  <unicode hex="0059"/>
  <outline>
    <contour>
      <point x="117" y="-28" type="curve" smooth="yes"/>
      <point x="440" y="269" type="line" smooth="yes"/>
      <point x="453" y="281"/>
      <point x="456" y="304"/>
      <point x="446" y="320" type="curve" smooth="yes"/>
      <point x="124" y="820" type="line" smooth="yes"/>
      <point x="112" y="838"/>
      <point x="86" y="843"/>
      <point x="68" y="832" type="curve" smooth="yes"/>
      <point x="50" y="820"/>
      <point x="45" y="794"/>
      <point x="56" y="776" type="curve" smooth="yes"/>
      <point x="361" y="305" type="line"/>
      <point x="63" y="30" type="line" smooth="yes"/>
      <point x="47" y="16"/>
      <point x="46" y="-10"/>
      <point x="61" y="-26" type="curve" smooth="yes"/>
      <point x="75" y="-42"/>
      <point x="101" y="-43"/>
    </contour>
  </outline>
</glyph>
<glyph name="bracketleft" format="1">
  <advance width="479"/>
  <unicode hex="005B"/>
  <outline>
    <contour>
      <point x="418" y="-28" type="curve" smooth="yes"/>
      <point x="433" y="-12"/>
      <point x="432" y="14"/>
      <point x="417" y="29" type="curve" smooth="yes"/>
      <point x="139" y="297" type="line"/>
      <point x="423" y="780" type="line" smooth="yes"/>
      <point x="434" y="798"/>
      <point x="428" y="824"/>
      <point x="409" y="834" type="curve" smooth="yes"/>
      <point x="391" y="845"/>
      <point x="365" y="839"/>
      <point x="355" y="820" type="curve" smooth="yes"/>
      <point x="55" y="310" type="line" smooth="yes"/>
      <point x="46" y="295"/>
      <point x="49" y="273"/>
      <point x="61" y="261" type="curve" smooth="yes"/>
      <point x="361" y="-29" type="line" smooth="yes"/>
      <point x="377" y="-44"/>
      <point x="403" y="-43"/>
    </contour>
  </outline>
</glyph>
<glyph name="bracketright" format="1">
  <advance width="479"/>
  <unicode hex="005D"/>
  <outline>
    <contour>
      <point x="118" y="-30" type="curve" smooth="yes"/>
      <point x="418" y="260" type="line" smooth="yes"/>
      <point x="430" y="272"/>
      <point x="433" y="294"/>
      <point x="424" y="309" type="curve" smooth="yes"/>
      <point x="124" y="819" type="line" smooth="yes"/>
      <point x="114" y="838"/>
      <point x="88" y="844"/>
      <point x="70" y="833" type="curve" smooth="yes"/>
      <point x="51" y="823"/>
      <point x="45" y="797"/>
      <point x="56" y="779" type="curve" smooth="yes"/>
      <point x="340" y="296" type="line"/>
      <point x="62" y="28" type="line" smooth="yes"/>
      <point x="47" y="13"/>
      <point x="46" y="-13"/>
      <point x="61" y="-29" type="curve" smooth="yes"/>
      <point x="76" y="-44"/>
      <point x="102" y="-45"/>
    </contour>
  </outline>
</glyph>
<glyph name="asciicircum" format="1">
  <advance width="780"/>
  <unicode hex="005E"/>
  <outline>
    <contour>
      <point x="50" y="502" type="curve" smooth="yes"/>
      <point x="50" y="480"/>
      <point x="68" y="462"/>
      <point x="90" y="462" type="curve" smooth="yes"/>
      <point x="690" y="462" type="line" smooth="yes"/>
      <point x="712" y="462"/>
      <point x="730" y="480"/>
      <point x="730" y="502" type="curve" smooth="yes"/>
      <point x="730" y="524"/>
      <point x="712" y="542"/>
      <point x="690" y="542" type="curve" smooth="yes"/>
      <point x="90" y="542" type="line" smooth="yes"/>
      <point x="68" y="542"/>
      <point x="50" y="524"/>
    </contour>
  </outline>
</glyph>
<glyph name="c" format="1">
  <advance width="774"/>
  <unicode hex="0063"/>
  <outline>
    <contour>
      <point x="107" y="53" type="curve" smooth="yes"/>
      <point x="691" y="159" type="line" smooth="yes"/>
      <point x="712" y="162"/>
      <point x="727" y="184"/>
      <point x="723" y="205" type="curve" smooth="yes"/>
      <point x="720" y="226"/>
      <point x="698" y="241"/>
      <point x="677" y="237" type="curve" smooth="yes"/>
      <point x="139" y="141" type="line"/>
      <point x="131" y="638" type="line"/>
      <point x="678" y="558" type="line" smooth="yes"/>
      <point x="700" y="555"/>
      <point x="720" y="571"/>
      <point x="724" y="592" type="curve" smooth="yes"/>
      <point x="727" y="614"/>
      <point x="711" y="634"/>
      <point x="690" y="638" type="curve" smooth="yes"/>
      <point x="96" y="724" type="line" smooth="yes"/>
      <point x="71" y="727"/>
      <point x="50" y="709"/>
      <point x="50" y="683" type="curve" smooth="yes"/>
      <point x="60" y="92" type="line" smooth="yes"/>
      <point x="60" y="67"/>
      <point x="82" y="49"/>
    </contour>
  </outline>
</glyph>
<glyph name="d" format="1">
  <advance width="780"/>
  <unicode hex="0064"/>
  <outline>
    <contour>
      <point x="727" y="149" type="curve" smooth="yes"/>
      <point x="730" y="589" type="line" smooth="yes"/>
      <point x="730" y="591"/>
      <point x="730" y="593"/>
      <point x="730" y="594" type="curve"/>
      <point x="732" y="612"/>
      <point x="721" y="630"/>
      <point x="703" y="637" type="curve" smooth="yes"/>
      <point x="138" y="837" type="line" smooth="yes"/>
      <point x="112" y="846"/>
      <point x="87" y="830"/>
      <point x="85" y="801" type="curve" smooth="yes"/>
      <point x="50" y="211" type="line" smooth="yes"/>
      <point x="49" y="190"/>
      <point x="65" y="171"/>
      <point x="86" y="169" type="curve" smooth="yes"/>
      <point x="683" y="109" type="line" smooth="yes"/>
      <point x="707" y="107"/>
      <point x="727" y="124"/>
    </contour>
    <contour>
      <point x="647" y="193" type="line"/>
      <point x="132" y="245" type="line"/>
      <point x="162" y="744" type="line"/>
      <point x="650" y="571" type="line"/>
    </contour>
  </outline>
</glyph>
<glyph name="e" format="1">
  <advance width="728"/>
  <unicode hex="0065"/>
  <outline>
    <contour>
      <point x="469" y="-28" type="curve" smooth="yes"/>
      <point x="667" y="168" type="line" smooth="yes"/>
      <point x="682" y="183"/>
      <point x="683" y="209"/>
      <point x="667" y="224" type="curve" smooth="yes"/>
      <point x="652" y="239"/>
      <point x="626" y="240"/>
      <point x="611" y="224" type="curve" smooth="yes"/>
      <point x="441" y="56" type="line"/>
      <point x="160" y="344" type="line"/>
      <point x="654" y="565" type="line" smooth="yes"/>
      <point x="674" y="574"/>
      <point x="683" y="599"/>
      <point x="675" y="618" type="curve" smooth="yes"/>
      <point x="666" y="638"/>
      <point x="641" y="647"/>
      <point x="622" y="639" type="curve" smooth="yes"/>
      <point x="75" y="394" type="line" smooth="yes"/>
      <point x="48" y="382"/>
      <point x="42" y="351"/>
      <point x="62" y="329" type="curve" smooth="yes"/>
      <point x="410" y="-28" type="line" smooth="yes"/>
      <point x="418" y="-36"/>
      <point x="429" y="-40"/>
      <point x="439" y="-40" type="curve"/>
      <point x="450" y="-40"/>
      <point x="461" y="-36"/>
    </contour>
  </outline>
</glyph>
<glyph name="f" format="1">
  <advance width="779"/>
  <unicode hex="0066"/>
  <outline>
    <contour>
      <point x="130" y="-2" type="curve" smooth="yes"/>
      <point x="182" y="338" type="line"/>
      <point x="264" y="374" type="line"/>
      <point x="271" y="368"/>
      <point x="280" y="364"/>
      <point x="290" y="364" type="curve" smooth="yes"/>
      <point x="490" y="364" type="line" smooth="yes"/>
      <point x="512" y="364"/>
      <point x="530" y="382"/>
      <point x="530" y="404" type="curve" smooth="yes"/>
      <point x="530" y="426"/>
      <point x="512" y="444"/>
      <point x="490" y="444" type="curve" smooth="yes"/>
      <point x="422" y="444" type="line"/>
      <point x="705" y="569" type="line" smooth="yes"/>
      <point x="725" y="578"/>
      <point x="734" y="602"/>
      <point x="726" y="622" type="curve" smooth="yes"/>
      <point x="717" y="642"/>
      <point x="693" y="651"/>
      <point x="673" y="643" type="curve" smooth="yes"/>
      <point x="130" y="402" type="line" smooth="yes"/>
      <point x="119" y="397"/>
      <point x="108" y="383"/>
      <point x="106" y="372" type="curve" smooth="yes"/>
      <point x="50" y="10" type="line" smooth="yes"/>
      <point x="47" y="-11"/>
      <point x="63" y="-32"/>
      <point x="84" y="-36" type="curve" smooth="yes"/>
      <point x="105" y="-39"/>
      <point x="126" y="-23"/>
    </contour>
  </outline>
</glyph>
<glyph name="i" format="1">
  <advance width="779"/>
  <unicode hex="0069"/>
  <outline>
    <contour>
      <point x="123" y="-21" type="curve" smooth="yes"/>
      <point x="421" y="485" type="line"/>
      <point x="717" y="770" type="line" smooth="yes"/>
      <point x="732" y="785"/>
      <point x="733" y="811"/>
      <point x="718" y="827" type="curve" smooth="yes"/>
      <point x="703" y="842"/>
      <point x="677" y="843"/>
      <point x="661" y="828" type="curve" smooth="yes"/>
      <point x="361" y="538" type="line" smooth="yes"/>
      <point x="359" y="536"/>
      <point x="356" y="532"/>
      <point x="355" y="530" type="curve" smooth="yes"/>
      <point x="55" y="19" type="line" smooth="yes"/>
      <point x="44" y="1"/>
      <point x="50" y="-25"/>
      <point x="69" y="-35" type="curve" smooth="yes"/>
      <point x="87" y="-46"/>
      <point x="113" y="-40"/>
    </contour>
  </outline>
</glyph>
<glyph name="k" format="1">
  <advance width="780"/>
  <unicode hex="006B"/>
  <outline>
    <contour>
      <point x="720" y="-23" type="curve" smooth="yes"/>
      <point x="734" y="-7"/>
      <point x="733" y="19"/>
      <point x="717" y="34" type="curve" smooth="yes"/>
      <point x="288" y="426" type="line"/>
      <point x="127" y="819" type="line" smooth="yes"/>
      <point x="119" y="839"/>
      <point x="95" y="849"/>
      <point x="75" y="841" type="curve" smooth="yes"/>
      <point x="55" y="833"/>
      <point x="45" y="809"/>
      <point x="53" y="789" type="curve" smooth="yes"/>
      <point x="218" y="387" type="line" smooth="yes"/>
      <point x="219" y="383"/>
      <point x="224" y="376"/>
      <point x="228" y="373" type="curve" smooth="yes"/>
      <point x="663" y="-26" type="line" smooth="yes"/>
      <point x="679" y="-40"/>
      <point x="705" y="-39"/>
    </contour>
    <contour>
      <point x="472" y="368" type="curve" smooth="yes"/>
      <point x="491" y="359"/>
      <point x="516" y="367"/>
      <point x="526" y="386" type="curve" smooth="yes"/>
      <point x="726" y="786" type="line" smooth="yes"/>
      <point x="735" y="805"/>
      <point x="727" y="830"/>
      <point x="708" y="840" type="curve" smooth="yes"/>
      <point x="689" y="849"/>
      <point x="664" y="841"/>
      <point x="654" y="822" type="curve" smooth="yes"/>
      <point x="454" y="422" type="line" smooth="yes"/>
      <point x="445" y="403"/>
      <point x="453" y="378"/>
    </contour>
  </outline>
</glyph>
<glyph name="m" format="1">
  <advance width="780"/>
  <unicode hex="006D"/>
  <outline>
    <contour>
      <point x="690" y="-41" type="curve" smooth="yes"/>
      <point x="712" y="-41"/>
      <point x="730" y="-23"/>
      <point x="730" y="-1" type="curve" smooth="yes"/>
      <point x="730" y="599" type="line" smooth="yes"/>
      <point x="730" y="615"/>
      <point x="718" y="631"/>
      <point x="703" y="637" type="curve" smooth="yes"/>
      <point x="143" y="837" type="line" smooth="yes"/>
      <point x="117" y="846"/>
      <point x="92" y="830"/>
      <point x="90" y="802" type="curve" smooth="yes"/>
      <point x="50" y="212" type="line"/>
      <point x="50" y="-1" type="line" smooth="yes"/>
      <point x="50" y="-23"/>
      <point x="68" y="-41"/>
      <point x="90" y="-41" type="curve" smooth="yes"/>
      <point x="112" y="-41"/>
      <point x="130" y="-23"/>
      <point x="130" y="-1" type="curve" smooth="yes"/>
      <point x="130" y="206" type="line"/>
      <point x="166" y="744" type="line"/>
      <point x="650" y="571" type="line"/>
      <point x="650" y="-1" type="line" smooth="yes"/>
      <point x="650" y="-23"/>
      <point x="668" y="-41"/>
    </contour>
  </outline>
</glyph>
<glyph name="n" format="1">
  <advance width="780"/>
  <unicode hex="006E"/>
  <outline>
    <contour>
      <point x="130" y="-1" type="curve" smooth="yes"/>
      <point x="130" y="169" type="line"/>
      <point x="377" y="623" type="line"/>
      <point x="656" y="178" type="line" smooth="yes"/>
      <point x="679" y="141"/>
      <point x="730" y="156"/>
      <point x="730" y="199" type="curve" smooth="yes"/>
      <point x="730" y="799" type="line" smooth="yes"/>
      <point x="730" y="821"/>
      <point x="712" y="839"/>
      <point x="690" y="839" type="curve" smooth="yes"/>
      <point x="668" y="839"/>
      <point x="650" y="821"/>
      <point x="650" y="799" type="curve" smooth="yes"/>
      <point x="650" y="338" type="line"/>
      <point x="408" y="723" type="line" smooth="yes"/>
      <point x="391" y="751"/>
      <point x="355" y="750"/>
      <point x="339" y="721" type="curve" smooth="yes"/>
      <point x="55" y="198" type="line" smooth="yes"/>
      <point x="52" y="193"/>
      <point x="50" y="185"/>
      <point x="50" y="179" type="curve" smooth="yes"/>
      <point x="50" y="-1" type="line" smooth="yes"/>
      <point x="50" y="-23"/>
      <point x="68" y="-41"/>
      <point x="90" y="-41" type="curve" smooth="yes"/>
      <point x="112" y="-41"/>
      <point x="130" y="-23"/>
    </contour>
  </outline>
</glyph>
<glyph name="o" format="1">
  <advance width="778"/>
  <unicode hex="006F"/>
  <outline>
    <contour>
      <point x="466" y="47" type="line"/>
      <point x="131" y="167" type="line"/>
      <point x="155" y="683" type="line"/>
      <point x="636" y="533" type="line"/>
    </contour>
    <contour>
      <point x="529" y="-14" type="curve" smooth="yes"/>
      <point x="726" y="546" type="line" smooth="yes"/>
      <point x="733" y="567"/>
      <point x="722" y="590"/>
      <point x="700" y="597" type="curve" smooth="yes"/>
      <point x="129" y="774" type="line" smooth="yes"/>
      <point x="103" y="783"/>
      <point x="78" y="766"/>
      <point x="77" y="738" type="curve" smooth="yes"/>
      <point x="50" y="142" type="line" smooth="yes"/>
      <point x="49" y="125"/>
      <point x="61" y="108"/>
      <point x="76" y="102" type="curve" smooth="yes"/>
      <point x="467" y="-39" type="line" smooth="yes"/>
      <point x="473" y="-41"/>
      <point x="479" y="-41"/>
      <point x="485" y="-40" type="curve"/>
      <point x="504" y="-43"/>
      <point x="522" y="-32"/>
    </contour>
  </outline>
</glyph>
<glyph name="p" format="1">
  <advance width="724"/>
  <unicode hex="0070"/>
  <outline>
    <contour>
      <point x="90" y="-37" type="curve" smooth="yes"/>
      <point x="112" y="-37"/>
      <point x="130" y="-19"/>
      <point x="130" y="3" type="curve" smooth="yes"/>
      <point x="130" y="73" type="line"/>
      <point x="649" y="307" type="line" smooth="yes"/>
      <point x="675" y="318"/>
      <point x="682" y="347"/>
      <point x="664" y="369" type="curve" smooth="yes"/>
      <point x="284" y="827" type="line" smooth="yes"/>
      <point x="262" y="854"/>
      <point x="225" y="846"/>
      <point x="215" y="813" type="curve" smooth="yes"/>
      <point x="52" y="244" type="line" smooth="yes"/>
      <point x="51" y="241"/>
      <point x="50" y="236"/>
      <point x="50" y="233" type="curve" smooth="yes"/>
      <point x="50" y="3" type="line" smooth="yes"/>
      <point x="50" y="-19"/>
      <point x="68" y="-37"/>
    </contour>
    <contour>
      <point x="130" y="161" type="line"/>
      <point x="130" y="227" type="line"/>
      <point x="271" y="718" type="line"/>
      <point x="569" y="358" type="line"/>
    </contour>
  </outline>
</glyph>
<glyph name="s" format="1">
  <advance width="781"/>
  <unicode hex="0073"/>
  <outline>
    <contour>
      <point x="103" y="166" type="curve" smooth="yes"/>
      <point x="620" y="349" type="line" smooth="yes"/>
      <point x="654" y="362"/>
      <point x="658" y="402"/>
      <point x="627" y="421" type="curve" smooth="yes"/>
      <point x="291" y="625" type="line"/>
      <point x="685" y="564" type="line" smooth="yes"/>
      <point x="706" y="561"/>
      <point x="727" y="577"/>
      <point x="731" y="598" type="curve" smooth="yes"/>
      <point x="734" y="619"/>
      <point x="718" y="640"/>
      <point x="697" y="644" type="curve" smooth="yes"/>
      <point x="104" y="735" type="line" smooth="yes"/>
      <point x="58" y="742"/>
      <point x="38" y="685"/>
      <point x="78" y="661" type="curve" smooth="yes"/>
      <point x="513" y="397" type="line"/>
      <point x="77" y="242" type="line" smooth="yes"/>
      <point x="56" y="234"/>
      <point x="45" y="211"/>
      <point x="52" y="191" type="curve" smooth="yes"/>
      <point x="60" y="170"/>
      <point x="83" y="159"/>
    </contour>
  </outline>
</glyph>
<glyph name="v" format="1">
  <advance width="780"/>
  <unicode hex="0076"/>
  <outline>
    <contour>
      <point x="725" y="125" type="curve" smooth="yes"/>
      <point x="730" y="720" type="line"/>
      <point x="730" y="800" type="line" smooth="yes"/>
      <point x="730" y="822"/>
      <point x="712" y="840"/>
      <point x="690" y="840" type="curve" smooth="yes"/>
      <point x="668" y="840"/>
      <point x="650" y="822"/>
      <point x="650" y="800" type="curve" smooth="yes"/>
      <point x="650" y="720" type="line"/>
      <point x="645" y="170" type="line"/>
      <point x="130" y="235" type="line"/>
      <point x="130" y="800" type="line" smooth="yes"/>
      <point x="130" y="822"/>
      <point x="112" y="840"/>
      <point x="90" y="840" type="curve" smooth="yes"/>
      <point x="68" y="840"/>
      <point x="50" y="822"/>
      <point x="50" y="800" type="curve" smooth="yes"/>
      <point x="50" y="200" type="line"/>
      <point x="50" y="181"/>
      <point x="66" y="163"/>
      <point x="85" y="160" type="curve" smooth="yes"/>
      <point x="680" y="85" type="line" smooth="yes"/>
      <point x="704" y="82"/>
      <point x="725" y="100"/>
    </contour>
  </outline>
</glyph>
<glyph name="z" format="1">
  <advance width="779"/>
  <unicode hex="007A"/>
  <outline>
    <contour>
      <point x="723" y="-22" type="curve" smooth="yes"/>
      <point x="735" y="-4"/>
      <point x="730" y="21"/>
      <point x="712" y="33" type="curve" smooth="yes"/>
      <point x="305" y="305" type="line"/>
      <point x="705" y="670" type="line" smooth="yes"/>
      <point x="732" y="694"/>
      <point x="721" y="733"/>
      <point x="685" y="739" type="curve" smooth="yes"/>
      <point x="97" y="839" type="line" smooth="yes"/>
      <point x="75" y="843"/>
      <point x="54" y="828"/>
      <point x="51" y="807" type="curve" smooth="yes"/>
      <point x="47" y="785"/>
      <point x="62" y="764"/>
      <point x="83" y="761" type="curve" smooth="yes"/>
      <point x="591" y="674" type="line"/>
      <point x="213" y="330" type="line" smooth="yes"/>
      <point x="193" y="311"/>
      <point x="195" y="282"/>
      <point x="218" y="267" type="curve" smooth="yes"/>
      <point x="668" y="-33" type="line" smooth="yes"/>
      <point x="686" y="-45"/>
      <point x="711" y="-40"/>
    </contour>
  </outline>
</glyph>
<glyph name="braceleft" format="1">
  <advance width="630"/>
  <unicode hex="007B"/>
  <outline>
    <contour>
      <point x="530" y="-42" type="curve" smooth="yes"/>
      <point x="540" y="-42" type="line" smooth="yes"/>
      <point x="562" y="-42"/>
      <point x="580" y="-24"/>
      <point x="580" y="-2" type="curve" smooth="yes"/>
      <point x="580" y="18"/>
      <point x="565" y="34"/>
      <point x="546" y="37" type="curve"/>
      <point x="150" y="400" type="line"/>
      <point x="566" y="768" type="line" smooth="yes"/>
      <point x="583" y="782"/>
      <point x="584" y="808"/>
      <point x="570" y="824" type="curve" smooth="yes"/>
      <point x="556" y="841"/>
      <point x="530" y="842"/>
      <point x="514" y="828" type="curve" smooth="yes"/>
      <point x="64" y="431" type="line" smooth="yes"/>
      <point x="45" y="415"/>
      <point x="45" y="388"/>
      <point x="63" y="372" type="curve" smooth="yes"/>
      <point x="503" y="-31" type="line" smooth="yes"/>
      <point x="509" y="-37"/>
      <point x="521" y="-42"/>
    </contour>
  </outline>
</glyph>
<glyph name="braceright" format="1">
  <advance width="630"/>
  <unicode hex="007D"/>
  <outline>
    <contour>
      <point x="90" y="-41" type="curve" smooth="yes"/>
      <point x="100" y="-41" type="line" smooth="yes"/>
      <point x="109" y="-41"/>
      <point x="121" y="-36"/>
      <point x="127" y="-30" type="curve" smooth="yes"/>
      <point x="567" y="373" type="line" smooth="yes"/>
      <point x="585" y="389"/>
      <point x="585" y="416"/>
      <point x="566" y="432" type="curve" smooth="yes"/>
      <point x="116" y="829" type="line" smooth="yes"/>
      <point x="100" y="843"/>
      <point x="74" y="842"/>
      <point x="60" y="825" type="curve" smooth="yes"/>
      <point x="46" y="809"/>
      <point x="47" y="783"/>
      <point x="64" y="769" type="curve" smooth="yes"/>
      <point x="480" y="401" type="line"/>
      <point x="84" y="38" type="line"/>
      <point x="65" y="35"/>
      <point x="50" y="18"/>
      <point x="50" y="-1" type="curve" smooth="yes"/>
      <point x="50" y="-23"/>
      <point x="68" y="-41"/>
    </contour>
  </outline>
</glyph>
<glyph name="asciitilde" format="1">
  <advance width="780"/>
  <unicode hex="007E"/>
  <outline>
    <contour>
      <point x="97" y="64" type="curve" smooth="yes"/>
      <point x="685" y="164" type="line" smooth="yes"/>
      <point x="701" y="166"/>
      <point x="716" y="182"/>
      <point x="718" y="198" type="curve" smooth="yes"/>
      <point x="730" y="298" type="line" smooth="yes"/>
      <point x="732" y="320"/>
      <point x="716" y="340"/>
      <point x="695" y="343" type="curve" smooth="yes"/>
      <point x="673" y="345"/>
      <point x="653" y="329"/>
      <point x="650" y="308" type="curve" smooth="yes"/>
      <point x="642" y="237" type="line"/>
      <point x="83" y="142" type="line" smooth="yes"/>
      <point x="62" y="139"/>
      <point x="47" y="118"/>
      <point x="51" y="96" type="curve" smooth="yes"/>
      <point x="54" y="75"/>
      <point x="75" y="60"/>
    </contour>
  </outline>
</glyph>
<glyph name="cent" format="1">
  <advance width="280"/>
  <unicode hex="00A2"/>
  <outline>
    <contour>
      <point x="90" y="360" type="curve" smooth="yes"/>
      <point x="112" y="360"/>
      <point x="130" y="378"/>
      <point x="130" y="400" type="curve" smooth="yes"/>
      <point x="130" y="500" type="line" smooth="yes"/>
      <point x="130" y="522"/>
      <point x="112" y="540"/>
      <point x="90" y="540" type="curve" smooth="yes"/>
      <point x="68" y="540"/>
      <point x="50" y="522"/>
      <point x="50" y="500" type="curve" smooth="yes"/>
      <point x="50" y="400" type="line" smooth="yes"/>
      <point x="50" y="378"/>
      <point x="68" y="360"/>
    </contour>
    <contour>
      <point x="190" y="440" type="curve" smooth="yes"/>
      <point x="168" y="440"/>
      <point x="150" y="422"/>
      <point x="150" y="400" type="curve" smooth="yes"/>
      <point x="150" y="0" type="line" smooth="yes"/>
      <point x="150" y="-22"/>
      <point x="168" y="-40"/>
      <point x="190" y="-40" type="curve" smooth="yes"/>
      <point x="212" y="-40"/>
      <point x="230" y="-22"/>
      <point x="230" y="0" type="curve" smooth="yes"/>
      <point x="230" y="400" type="line" smooth="yes"/>
      <point x="230" y="422"/>
      <point x="212" y="440"/>
    </contour>
    <contour>
      <point x="90" y="40" type="curve" smooth="yes"/>
      <point x="68" y="40"/>
      <point x="50" y="22"/>
      <point x="50" y="0" type="curve" smooth="yes"/>
      <point x="50" y="-100" type="line" smooth="yes"/>
      <point x="50" y="-122"/>
      <point x="68" y="-140"/>
      <point x="90" y="-140" type="curve" smooth="yes"/>
      <point x="112" y="-140"/>
      <point x="130" y="-122"/>
      <point x="130" y="-100" type="curve" smooth="yes"/>
      <point x="130" y="0" type="line" smooth="yes"/>
      <point x="130" y="22"/>
      <point x="112" y="40"/>
    </contour>
  </outline>
</glyph>
<glyph name="sterling" format="1">
  <advance width="530"/>
  <unicode hex="00A3"/>
  <outline>
    <contour>
      <point x="453" y="-37" type="curve" smooth="yes"/>
      <point x="474" y="-29"/>
      <point x="485" y="-6"/>
      <point x="478" y="14" type="curve" smooth="yes"/>
      <point x="354" y="361" type="line"/>
      <point x="390" y="361" type="line" smooth="yes"/>
      <point x="412" y="361"/>
      <point x="430" y="379"/>
      <point x="430" y="401" type="curve" smooth="yes"/>
      <point x="430" y="423"/>
      <point x="412" y="441"/>
      <point x="390" y="441" type="curve" smooth="yes"/>
      <point x="325" y="441" type="line"/>
      <point x="285" y="553" type="line"/>
      <point x="471" y="775" type="line" smooth="yes"/>
      <point x="485" y="792"/>
      <point x="482" y="818"/>
      <point x="466" y="832" type="curve" smooth="yes"/>
      <point x="449" y="846"/>
      <point x="423" y="843"/>
      <point x="409" y="827" type="curve" smooth="yes"/>
      <point x="209" y="587" type="line" smooth="yes"/>
      <point x="201" y="577"/>
      <point x="198" y="560"/>
      <point x="202" y="548" type="curve" smooth="yes"/>
      <point x="241" y="441" type="line"/>
      <point x="90" y="441" type="line" smooth="yes"/>
      <point x="68" y="441"/>
      <point x="50" y="423"/>
      <point x="50" y="401" type="curve" smooth="yes"/>
      <point x="50" y="379"/>
      <point x="68" y="361"/>
      <point x="90" y="361" type="curve" smooth="yes"/>
      <point x="269" y="361" type="line"/>
      <point x="402" y="-12" type="line" smooth="yes"/>
      <point x="410" y="-33"/>
      <point x="433" y="-44"/>
    </contour>
  </outline>
</glyph>
<glyph name="section" format="1">
  <advance width="780"/>
  <unicode hex="00A7"/>
  <outline>
    <contour>
      <point x="91" y="163" type="curve" smooth="yes"/>
      <point x="644" y="179" type="line" smooth="yes"/>
      <point x="685" y="180"/>
      <point x="699" y="226"/>
      <point x="666" y="251" type="curve" smooth="yes"/>
      <point x="267" y="551" type="line"/>
      <point x="691" y="563" type="line" smooth="yes"/>
      <point x="713" y="564"/>
      <point x="731" y="583"/>
      <point x="730" y="604" type="curve" smooth="yes"/>
      <point x="729" y="626"/>
      <point x="710" y="644"/>
      <point x="689" y="643" type="curve" smooth="yes"/>
      <point x="136" y="627" type="line" smooth="yes"/>
      <point x="95" y="626"/>
      <point x="81" y="580"/>
      <point x="114" y="555" type="curve" smooth="yes"/>
      <point x="513" y="255" type="line"/>
      <point x="89" y="243" type="line" smooth="yes"/>
      <point x="67" y="242"/>
      <point x="49" y="223"/>
      <point x="50" y="202" type="curve" smooth="yes"/>
      <point x="51" y="180"/>
      <point x="70" y="162"/>
    </contour>
  </outline>
</glyph>
<glyph name="paragraph" format="1">
  <advance width="380"/>
  <unicode hex="00B6"/>
  <outline>
    <contour>
      <point x="290" y="-40" type="curve" smooth="yes"/>
      <point x="312" y="-40"/>
      <point x="330" y="-22"/>
      <point x="330" y="0" type="curve" smooth="yes"/>
      <point x="330" y="40" type="line" smooth="yes"/>
      <point x="330" y="44"/>
      <point x="329" y="50"/>
      <point x="328" y="53" type="curve" smooth="yes"/>
      <point x="128" y="613" type="line" smooth="yes"/>
      <point x="112" y="658"/>
      <point x="50" y="647"/>
      <point x="50" y="600" type="curve" smooth="yes"/>
      <point x="50" y="0" type="line" smooth="yes"/>
      <point x="50" y="-22"/>
      <point x="68" y="-40"/>
      <point x="90" y="-40" type="curve" smooth="yes"/>
      <point x="112" y="-40"/>
      <point x="130" y="-22"/>
      <point x="130" y="0" type="curve" smooth="yes"/>
      <point x="130" y="369" type="line"/>
      <point x="250" y="33" type="line"/>
      <point x="250" y="0" type="line" smooth="yes"/>
      <point x="250" y="-22"/>
      <point x="268" y="-40"/>
    </contour>
  </outline>
</glyph>
<glyph name="guillemotright" format="1">
  <advance width="380"/>
  <unicode hex="00BB"/>
  <outline>
    <contour>
      <point x="90" y="441" type="curve" smooth="yes"/>
      <point x="68" y="441"/>
      <point x="50" y="423"/>
      <point x="50" y="401" type="curve" smooth="yes"/>
      <point x="50" y="1" type="line" smooth="yes"/>
      <point x="50" y="-21"/>
      <point x="68" y="-39"/>
      <point x="90" y="-39" type="curve" smooth="yes"/>
      <point x="112" y="-39"/>
      <point x="130" y="-21"/>
      <point x="130" y="1" type="curve" smooth="yes"/>
      <point x="130" y="401" type="line" smooth="yes"/>
      <point x="130" y="423"/>
      <point x="112" y="441"/>
    </contour>
    <contour>
      <point x="290" y="441" type="curve" smooth="yes"/>
      <point x="268" y="441"/>
      <point x="250" y="423"/>
      <point x="250" y="401" type="curve" smooth="yes"/>
      <point x="250" y="1" type="line" smooth="yes"/>
      <point x="250" y="-21"/>
      <point x="268" y="-39"/>
      <point x="290" y="-39" type="curve" smooth="yes"/>
      <point x="312" y="-39"/>
      <point x="330" y="-21"/>
      <point x="330" y="1" type="curve" smooth="yes"/>
      <point x="330" y="401" type="line" smooth="yes"/>
      <point x="330" y="423"/>
      <point x="312" y="441"/>
    </contour>
  </outline>
</glyph>
<glyph name="Agrave" format="1">
  <advance width="780"/>
  <unicode hex="00C0"/>
  <outline>
    <contour>
      <point x="423" y="906" type="curve" smooth="yes"/>
      <point x="435" y="924"/>
      <point x="430" y="949"/>
      <point x="412" y="961" type="curve" smooth="yes"/>
      <point x="112" y="1161" type="line" smooth="yes"/>
      <point x="94" y="1173"/>
      <point x="69" y="1168"/>
      <point x="57" y="1150" type="curve" smooth="yes"/>
      <point x="45" y="1132"/>
      <point x="50" y="1107"/>
      <point x="68" y="1095" type="curve" smooth="yes"/>
      <point x="368" y="895" type="line" smooth="yes"/>
      <point x="386" y="883"/>
      <point x="411" y="888"/>
    </contour>
    <contour>
      <point x="690" y="-44" type="curve" smooth="yes"/>
      <point x="712" y="-44"/>
      <point x="730" y="-26"/>
      <point x="730" y="-4" type="curve" smooth="yes"/>
      <point x="730" y="360" type="line" smooth="yes"/>
      <point x="730" y="369"/>
      <point x="725" y="381"/>
      <point x="719" y="388" type="curve" smooth="yes"/>
      <point x="317" y="823" type="line" smooth="yes"/>
      <point x="295" y="847"/>
      <point x="260" y="840"/>
      <point x="250" y="808" type="curve" smooth="yes"/>
      <point x="64" y="238" type="line" smooth="yes"/>
      <point x="54" y="207"/>
      <point x="78" y="180"/>
      <point x="110" y="187" type="curve" smooth="yes"/>
      <point x="650" y="297" type="line"/>
      <point x="650" y="-4" type="line" smooth="yes"/>
      <point x="650" y="-26"/>
      <point x="668" y="-44"/>
    </contour>
    <contour>
      <point x="162" y="279" type="line"/>
      <point x="305" y="719" type="line"/>
      <point x="624" y="373" type="line"/>
    </contour>
  </outline>
</glyph>
<glyph name="Aacute" format="1">
  <advance width="768"/>
  <unicode hex="00C1"/>
  <outline>
    <contour>
      <point x="345" y="906" type="curve" smooth="yes"/>
      <point x="357" y="888"/>
      <point x="382" y="883"/>
      <point x="400" y="895" type="curve" smooth="yes"/>
      <point x="700" y="1095" type="line" smooth="yes"/>
      <point x="718" y="1107"/>
      <point x="723" y="1132"/>
      <point x="711" y="1150" type="curve" smooth="yes"/>
      <point x="699" y="1168"/>
      <point x="674" y="1173"/>
      <point x="656" y="1161" type="curve" smooth="yes"/>
      <point x="356" y="961" type="line" smooth="yes"/>
      <point x="338" y="949"/>
      <point x="333" y="924"/>
    </contour>
    <contour>
      <point x="678" y="-44" type="curve" smooth="yes"/>
      <point x="700" y="-44"/>
      <point x="718" y="-26"/>
      <point x="718" y="-4" type="curve" smooth="yes"/>
      <point x="718" y="360" type="line" smooth="yes"/>
      <point x="718" y="369"/>
      <point x="713" y="381"/>
      <point x="707" y="388" type="curve" smooth="yes"/>
      <point x="305" y="823" type="line" smooth="yes"/>
      <point x="283" y="847"/>
      <point x="248" y="840"/>
      <point x="238" y="808" type="curve" smooth="yes"/>
      <point x="52" y="238" type="line" smooth="yes"/>
      <point x="42" y="207"/>
      <point x="66" y="180"/>
      <point x="98" y="187" type="curve" smooth="yes"/>
      <point x="638" y="297" type="line"/>
      <point x="638" y="-4" type="line" smooth="yes"/>
      <point x="638" y="-26"/>
      <point x="656" y="-44"/>
    </contour>
    <contour>
      <point x="150" y="279" type="line"/>
      <point x="293" y="719" type="line"/>
      <point x="612" y="373" type="line"/>
    </contour>
  </outline>
</glyph>
<glyph name="Atilde" format="1">
  <advance width="780"/>
  <unicode hex="00C3"/>
  <outline>
    <contour>
      <point x="97" y="889" type="curve" smooth="yes"/>
      <point x="685" y="989" type="line" smooth="yes"/>
      <point x="701" y="991"/>
      <point x="716" y="1007"/>
      <point x="718" y="1023" type="curve" smooth="yes"/>
      <point x="730" y="1123" type="line" smooth="yes"/>
      <point x="732" y="1145"/>
      <point x="716" y="1165"/>
      <point x="695" y="1168" type="curve" smooth="yes"/>
      <point x="673" y="1170"/>
      <point x="653" y="1154"/>
      <point x="650" y="1133" type="curve" smooth="yes"/>
      <point x="642" y="1062" type="line"/>
      <point x="83" y="967" type="line" smooth="yes"/>
      <point x="62" y="964"/>
      <point x="47" y="943"/>
      <point x="51" y="921" type="curve" smooth="yes"/>
      <point x="54" y="900"/>
      <point x="75" y="885"/>
    </contour>
    <contour>
      <point x="690" y="-44" type="curve" smooth="yes"/>
      <point x="712" y="-44"/>
      <point x="730" y="-26"/>
      <point x="730" y="-4" type="curve" smooth="yes"/>
      <point x="730" y="360" type="line" smooth="yes"/>
      <point x="730" y="369"/>
      <point x="725" y="381"/>
      <point x="719" y="388" type="curve" smooth="yes"/>
      <point x="317" y="823" type="line" smooth="yes"/>
      <point x="295" y="847"/>
      <point x="260" y="840"/>
      <point x="250" y="808" type="curve" smooth="yes"/>
      <point x="64" y="238" type="line" smooth="yes"/>
      <point x="54" y="207"/>
      <point x="78" y="180"/>
      <point x="110" y="187" type="curve" smooth="yes"/>
      <point x="650" y="297" type="line"/>
      <point x="650" y="-4" type="line" smooth="yes"/>
      <point x="650" y="-26"/>
      <point x="668" y="-44"/>
    </contour>
    <contour>
      <point x="162" y="279" type="line"/>
      <point x="305" y="719" type="line"/>
      <point x="624" y="373" type="line"/>
    </contour>
  </outline>
</glyph>
<glyph name="Egrave" format="1">
  <advance width="784"/>
  <unicode hex="00C8"/>
  <outline>
    <contour>
      <point x="423" y="906" type="curve" smooth="yes"/>
      <point x="435" y="924"/>
      <point x="430" y="949"/>
      <point x="412" y="961" type="curve" smooth="yes"/>
      <point x="112" y="1161" type="line" smooth="yes"/>
      <point x="94" y="1173"/>
      <point x="69" y="1168"/>
      <point x="57" y="1150" type="curve" smooth="yes"/>
      <point x="45" y="1132"/>
      <point x="50" y="1107"/>
      <point x="68" y="1095" type="curve" smooth="yes"/>
      <point x="368" y="895" type="line" smooth="yes"/>
      <point x="386" y="883"/>
      <point x="411" y="888"/>
    </contour>
    <contour>
      <point x="525" y="-28" type="curve" smooth="yes"/>
      <point x="723" y="168" type="line" smooth="yes"/>
      <point x="738" y="183"/>
      <point x="739" y="209"/>
      <point x="723" y="224" type="curve" smooth="yes"/>
      <point x="708" y="239"/>
      <point x="682" y="240"/>
      <point x="667" y="224" type="curve" smooth="yes"/>
      <point x="497" y="56" type="line"/>
      <point x="216" y="344" type="line"/>
      <point x="710" y="565" type="line" smooth="yes"/>
      <point x="730" y="574"/>
      <point x="739" y="599"/>
      <point x="731" y="618" type="curve" smooth="yes"/>
      <point x="722" y="638"/>
      <point x="697" y="647"/>
      <point x="678" y="639" type="curve" smooth="yes"/>
      <point x="131" y="394" type="line" smooth="yes"/>
      <point x="104" y="382"/>
      <point x="98" y="351"/>
      <point x="118" y="329" type="curve" smooth="yes"/>
      <point x="466" y="-28" type="line" smooth="yes"/>
      <point x="474" y="-36"/>
      <point x="485" y="-40"/>
      <point x="495" y="-40" type="curve"/>
      <point x="506" y="-40"/>
      <point x="517" y="-36"/>
    </contour>
  </outline>
</glyph>
<glyph name="Eacute" format="1">
  <advance width="728"/>
  <unicode hex="00C9"/>
  <outline>
    <contour>
      <point x="301" y="906" type="curve" smooth="yes"/>
      <point x="313" y="888"/>
      <point x="338" y="883"/>
      <point x="356" y="895" type="curve" smooth="yes"/>
      <point x="656" y="1095" type="line" smooth="yes"/>
      <point x="674" y="1107"/>
      <point x="679" y="1132"/>
      <point x="667" y="1150" type="curve" smooth="yes"/>
      <point x="655" y="1168"/>
      <point x="630" y="1173"/>
      <point x="612" y="1161" type="curve" smooth="yes"/>
      <point x="312" y="961" type="line" smooth="yes"/>
      <point x="294" y="949"/>
      <point x="289" y="924"/>
    </contour>
    <contour>
      <point x="469" y="-28" type="curve" smooth="yes"/>
      <point x="667" y="168" type="line" smooth="yes"/>
      <point x="682" y="183"/>
      <point x="683" y="209"/>
      <point x="667" y="224" type="curve" smooth="yes"/>
      <point x="652" y="239"/>
      <point x="626" y="240"/>
      <point x="611" y="224" type="curve" smooth="yes"/>
      <point x="441" y="56" type="line"/>
      <point x="160" y="344" type="line"/>
      <point x="654" y="565" type="line" smooth="yes"/>
      <point x="674" y="574"/>
      <point x="683" y="599"/>
      <point x="675" y="618" type="curve" smooth="yes"/>
      <point x="666" y="638"/>
      <point x="641" y="647"/>
      <point x="622" y="639" type="curve" smooth="yes"/>
      <point x="75" y="394" type="line" smooth="yes"/>
      <point x="48" y="382"/>
      <point x="42" y="351"/>
      <point x="62" y="329" type="curve" smooth="yes"/>
      <point x="410" y="-28" type="line" smooth="yes"/>
      <point x="418" y="-36"/>
      <point x="429" y="-40"/>
      <point x="439" y="-40" type="curve"/>
      <point x="450" y="-40"/>
      <point x="461" y="-36"/>
    </contour>
  </outline>
</glyph>
<glyph name="Igrave" format="1">
  <advance width="779"/>
  <unicode hex="00CC"/>
  <outline>
    <contour>
      <point x="426" y="906" type="curve" smooth="yes"/>
      <point x="438" y="924"/>
      <point x="433" y="949"/>
      <point x="415" y="961" type="curve" smooth="yes"/>
      <point x="115" y="1161" type="line" smooth="yes"/>
      <point x="97" y="1173"/>
      <point x="72" y="1168"/>
      <point x="60" y="1150" type="curve" smooth="yes"/>
      <point x="48" y="1132"/>
      <point x="53" y="1107"/>
      <point x="71" y="1095" type="curve" smooth="yes"/>
      <point x="371" y="895" type="line" smooth="yes"/>
      <point x="389" y="883"/>
      <point x="414" y="888"/>
    </contour>
    <contour>
      <point x="123" y="-21" type="curve" smooth="yes"/>
      <point x="421" y="485" type="line"/>
      <point x="717" y="770" type="line" smooth="yes"/>
      <point x="732" y="785"/>
      <point x="733" y="811"/>
      <point x="718" y="827" type="curve" smooth="yes"/>
      <point x="703" y="842"/>
      <point x="677" y="843"/>
      <point x="661" y="828" type="curve" smooth="yes"/>
      <point x="361" y="538" type="line" smooth="yes"/>
      <point x="359" y="536"/>
      <point x="356" y="532"/>
      <point x="355" y="530" type="curve" smooth="yes"/>
      <point x="55" y="19" type="line" smooth="yes"/>
      <point x="44" y="1"/>
      <point x="50" y="-25"/>
      <point x="69" y="-35" type="curve" smooth="yes"/>
      <point x="87" y="-46"/>
      <point x="113" y="-40"/>
    </contour>
  </outline>
</glyph>
<glyph name="Iacute" format="1">
  <advance width="783"/>
  <unicode hex="00CD"/>
  <outline>
    <contour>
      <point x="360" y="906" type="curve" smooth="yes"/>
      <point x="372" y="888"/>
      <point x="397" y="883"/>
      <point x="415" y="895" type="curve" smooth="yes"/>
      <point x="715" y="1095" type="line" smooth="yes"/>
      <point x="733" y="1107"/>
      <point x="738" y="1132"/>
      <point x="726" y="1150" type="curve" smooth="yes"/>
      <point x="714" y="1168"/>
      <point x="689" y="1173"/>
      <point x="671" y="1161" type="curve" smooth="yes"/>
      <point x="371" y="961" type="line" smooth="yes"/>
      <point x="353" y="949"/>
      <point x="348" y="924"/>
    </contour>
    <contour>
      <point x="123" y="-21" type="curve" smooth="yes"/>
      <point x="421" y="485" type="line"/>
      <point x="717" y="770" type="line" smooth="yes"/>
      <point x="732" y="785"/>
      <point x="733" y="811"/>
      <point x="718" y="827" type="curve" smooth="yes"/>
      <point x="703" y="842"/>
      <point x="677" y="843"/>
      <point x="661" y="828" type="curve" smooth="yes"/>
      <point x="361" y="538" type="line" smooth="yes"/>
      <point x="359" y="536"/>
      <point x="356" y="532"/>
      <point x="355" y="530" type="curve" smooth="yes"/>
      <point x="55" y="19" type="line" smooth="yes"/>
      <point x="44" y="1"/>
      <point x="50" y="-25"/>
      <point x="69" y="-35" type="curve" smooth="yes"/>
      <point x="87" y="-46"/>
      <point x="113" y="-40"/>
    </contour>
  </outline>
</glyph>
<glyph name="Icircumflex" format="1">
  <advance width="783"/>
  <unicode hex="00CE"/>
  <outline>
    <contour>
      <point x="53" y="928" type="curve" smooth="yes"/>
      <point x="53" y="906"/>
      <point x="71" y="888"/>
      <point x="93" y="888" type="curve" smooth="yes"/>
      <point x="693" y="888" type="line" smooth="yes"/>
      <point x="715" y="888"/>
      <point x="733" y="906"/>
      <point x="733" y="928" type="curve" smooth="yes"/>
      <point x="733" y="950"/>
      <point x="715" y="968"/>
      <point x="693" y="968" type="curve" smooth="yes"/>
      <point x="93" y="968" type="line" smooth="yes"/>
      <point x="71" y="968"/>
      <point x="53" y="950"/>
    </contour>
    <contour>
      <point x="123" y="-21" type="curve" smooth="yes"/>
      <point x="421" y="485" type="line"/>
      <point x="717" y="770" type="line" smooth="yes"/>
      <point x="732" y="785"/>
      <point x="733" y="811"/>
      <point x="718" y="827" type="curve" smooth="yes"/>
      <point x="703" y="842"/>
      <point x="677" y="843"/>
      <point x="661" y="828" type="curve" smooth="yes"/>
      <point x="361" y="538" type="line" smooth="yes"/>
      <point x="359" y="536"/>
      <point x="356" y="532"/>
      <point x="355" y="530" type="curve" smooth="yes"/>
      <point x="55" y="19" type="line" smooth="yes"/>
      <point x="44" y="1"/>
      <point x="50" y="-25"/>
      <point x="69" y="-35" type="curve" smooth="yes"/>
      <point x="87" y="-46"/>
      <point x="113" y="-40"/>
    </contour>
  </outline>
</glyph>
<glyph name="Ograve" format="1">
  <advance width="781"/>
  <unicode hex="00D2"/>
  <outline>
    <contour>
      <point x="423" y="906" type="curve" smooth="yes"/>
      <point x="435" y="924"/>
      <point x="430" y="949"/>
      <point x="412" y="961" type="curve" smooth="yes"/>
      <point x="112" y="1161" type="line" smooth="yes"/>
      <point x="94" y="1173"/>
      <point x="69" y="1168"/>
      <point x="57" y="1150" type="curve" smooth="yes"/>
      <point x="45" y="1132"/>
      <point x="50" y="1107"/>
      <point x="68" y="1095" type="curve" smooth="yes"/>
      <point x="368" y="895" type="line" smooth="yes"/>
      <point x="386" y="883"/>
      <point x="411" y="888"/>
    </contour>
    <contour>
      <point x="469" y="47" type="line"/>
      <point x="134" y="167" type="line"/>
      <point x="158" y="683" type="line"/>
      <point x="639" y="533" type="line"/>
    </contour>
    <contour>
      <point x="532" y="-14" type="curve" smooth="yes"/>
      <point x="729" y="546" type="line" smooth="yes"/>
      <point x="736" y="567"/>
      <point x="725" y="590"/>
      <point x="703" y="597" type="curve" smooth="yes"/>
      <point x="132" y="774" type="line" smooth="yes"/>
      <point x="106" y="783"/>
      <point x="81" y="766"/>
      <point x="80" y="738" type="curve" smooth="yes"/>
      <point x="53" y="142" type="line" smooth="yes"/>
      <point x="52" y="125"/>
      <point x="64" y="108"/>
      <point x="79" y="102" type="curve" smooth="yes"/>
      <point x="470" y="-39" type="line" smooth="yes"/>
      <point x="476" y="-41"/>
      <point x="482" y="-41"/>
      <point x="488" y="-40" type="curve"/>
      <point x="507" y="-43"/>
      <point x="525" y="-32"/>
    </contour>
  </outline>
</glyph>
<glyph name="Oacute" format="1">
  <advance width="778"/>
  <unicode hex="00D3"/>
  <outline>
    <contour>
      <point x="354" y="906" type="curve" smooth="yes"/>
      <point x="366" y="888"/>
      <point x="391" y="883"/>
      <point x="409" y="895" type="curve" smooth="yes"/>
      <point x="709" y="1095" type="line" smooth="yes"/>
      <point x="727" y="1107"/>
      <point x="732" y="1132"/>
      <point x="720" y="1150" type="curve" smooth="yes"/>
      <point x="708" y="1168"/>
      <point x="683" y="1173"/>
      <point x="665" y="1161" type="curve" smooth="yes"/>
      <point x="365" y="961" type="line" smooth="yes"/>
      <point x="347" y="949"/>
      <point x="342" y="924"/>
    </contour>
    <contour>
      <point x="466" y="47" type="line"/>
      <point x="131" y="167" type="line"/>
      <point x="155" y="683" type="line"/>
      <point x="636" y="533" type="line"/>
    </contour>
    <contour>
      <point x="529" y="-14" type="curve" smooth="yes"/>
      <point x="726" y="546" type="line" smooth="yes"/>
      <point x="733" y="567"/>
      <point x="722" y="590"/>
      <point x="700" y="597" type="curve" smooth="yes"/>
      <point x="129" y="774" type="line" smooth="yes"/>
      <point x="103" y="783"/>
      <point x="78" y="766"/>
      <point x="77" y="738" type="curve" smooth="yes"/>
      <point x="50" y="142" type="line" smooth="yes"/>
      <point x="49" y="125"/>
      <point x="61" y="108"/>
      <point x="76" y="102" type="curve" smooth="yes"/>
      <point x="467" y="-39" type="line" smooth="yes"/>
      <point x="473" y="-41"/>
      <point x="479" y="-41"/>
      <point x="485" y="-40" type="curve"/>
      <point x="504" y="-43"/>
      <point x="522" y="-32"/>
    </contour>
  </outline>
</glyph>
<glyph name="Otilde" format="1">
  <advance width="781"/>
  <unicode hex="00D5"/>
  <outline>
    <contour>
      <point x="97" y="889" type="curve" smooth="yes"/>
      <point x="685" y="989" type="line" smooth="yes"/>
      <point x="701" y="991"/>
      <point x="716" y="1007"/>
      <point x="718" y="1023" type="curve" smooth="yes"/>
      <point x="730" y="1123" type="line" smooth="yes"/>
      <point x="732" y="1145"/>
      <point x="716" y="1165"/>
      <point x="695" y="1168" type="curve" smooth="yes"/>
      <point x="673" y="1170"/>
      <point x="653" y="1154"/>
      <point x="650" y="1133" type="curve" smooth="yes"/>
      <point x="642" y="1062" type="line"/>
      <point x="83" y="967" type="line" smooth="yes"/>
      <point x="62" y="964"/>
      <point x="47" y="943"/>
      <point x="51" y="921" type="curve" smooth="yes"/>
      <point x="54" y="900"/>
      <point x="75" y="885"/>
    </contour>
    <contour>
      <point x="469" y="47" type="line"/>
      <point x="134" y="167" type="line"/>
      <point x="158" y="683" type="line"/>
      <point x="639" y="533" type="line"/>
    </contour>
    <contour>
      <point x="532" y="-14" type="curve" smooth="yes"/>
      <point x="729" y="546" type="line" smooth="yes"/>
      <point x="736" y="567"/>
      <point x="725" y="590"/>
      <point x="703" y="597" type="curve" smooth="yes"/>
      <point x="132" y="774" type="line" smooth="yes"/>
      <point x="106" y="783"/>
      <point x="81" y="766"/>
      <point x="80" y="738" type="curve" smooth="yes"/>
      <point x="53" y="142" type="line" smooth="yes"/>
      <point x="52" y="125"/>
      <point x="64" y="108"/>
      <point x="79" y="102" type="curve" smooth="yes"/>
      <point x="470" y="-39" type="line" smooth="yes"/>
      <point x="476" y="-41"/>
      <point x="482" y="-41"/>
      <point x="488" y="-40" type="curve"/>
      <point x="507" y="-43"/>
      <point x="525" y="-32"/>
    </contour>
  </outline>
</glyph>
<glyph name="Uacute" format="1">
  <advance width="781"/>
  <unicode hex="00DA"/>
  <outline>
    <contour>
      <point x="358" y="906" type="curve" smooth="yes"/>
      <point x="370" y="888"/>
      <point x="395" y="883"/>
      <point x="413" y="895" type="curve" smooth="yes"/>
      <point x="713" y="1095" type="line" smooth="yes"/>
      <point x="731" y="1107"/>
      <point x="736" y="1132"/>
      <point x="724" y="1150" type="curve" smooth="yes"/>
      <point x="712" y="1168"/>
      <point x="687" y="1173"/>
      <point x="669" y="1161" type="curve" smooth="yes"/>
      <point x="369" y="961" type="line" smooth="yes"/>
      <point x="351" y="949"/>
      <point x="346" y="924"/>
    </contour>
    <contour>
      <point x="729" y="199" type="curve" smooth="yes"/>
      <point x="729" y="799" type="line" smooth="yes"/>
      <point x="729" y="821"/>
      <point x="711" y="839"/>
      <point x="689" y="839" type="curve" smooth="yes"/>
      <point x="667" y="839"/>
      <point x="649" y="821"/>
      <point x="649" y="799" type="curve" smooth="yes"/>
      <point x="649" y="241" type="line"/>
      <point x="130" y="267" type="line"/>
      <point x="130" y="799" type="line" smooth="yes"/>
      <point x="130" y="821"/>
      <point x="112" y="839"/>
      <point x="90" y="839" type="curve" smooth="yes"/>
      <point x="68" y="839"/>
      <point x="50" y="821"/>
      <point x="50" y="799" type="curve" smooth="yes"/>
      <point x="50" y="229" type="line" smooth="yes"/>
      <point x="50" y="208"/>
      <point x="67" y="190"/>
      <point x="88" y="189" type="curve" smooth="yes"/>
      <point x="687" y="159" type="line" smooth="yes"/>
      <point x="710" y="158"/>
      <point x="729" y="176"/>
    </contour>
  </outline>
</glyph>
<glyph name="Ucircumflex" format="1">
  <advance width="781"/>
  <unicode hex="00DB"/>
  <outline>
    <contour>
      <point x="51" y="928" type="curve" smooth="yes"/>
      <point x="51" y="906"/>
      <point x="69" y="888"/>
      <point x="91" y="888" type="curve" smooth="yes"/>
      <point x="691" y="888" type="line" smooth="yes"/>
      <point x="713" y="888"/>
      <point x="731" y="906"/>
      <point x="731" y="928" type="curve" smooth="yes"/>
      <point x="731" y="950"/>
      <point x="713" y="968"/>
      <point x="691" y="968" type="curve" smooth="yes"/>
      <point x="91" y="968" type="line" smooth="yes"/>
      <point x="69" y="968"/>
      <point x="51" y="950"/>
    </contour>
    <contour>
      <point x="729" y="199" type="curve" smooth="yes"/>
      <point x="729" y="799" type="line" smooth="yes"/>
      <point x="729" y="821"/>
      <point x="711" y="839"/>
      <point x="689" y="839" type="curve" smooth="yes"/>
      <point x="667" y="839"/>
      <point x="649" y="821"/>
      <point x="649" y="799" type="curve" smooth="yes"/>
      <point x="649" y="241" type="line"/>
      <point x="130" y="267" type="line"/>
      <point x="130" y="799" type="line" smooth="yes"/>
      <point x="130" y="821"/>
      <point x="112" y="839"/>
      <point x="90" y="839" type="curve" smooth="yes"/>
      <point x="68" y="839"/>
      <point x="50" y="821"/>
      <point x="50" y="799" type="curve" smooth="yes"/>
      <point x="50" y="229" type="line" smooth="yes"/>
      <point x="50" y="208"/>
      <point x="67" y="190"/>
      <point x="88" y="189" type="curve" smooth="yes"/>
      <point x="687" y="159" type="line" smooth="yes"/>
      <point x="710" y="158"/>
      <point x="729" y="176"/>
    </contour>
  </outline>
</glyph>
<glyph name="acircumflex" format="1">
  <advance width="780"/>
  <unicode hex="00E2"/>
  <outline>
    <contour>
      <point x="50" y="928" type="curve" smooth="yes"/>
      <point x="50" y="906"/>
      <point x="68" y="888"/>
      <point x="90" y="888" type="curve" smooth="yes"/>
      <point x="690" y="888" type="line" smooth="yes"/>
      <point x="712" y="888"/>
      <point x="730" y="906"/>
      <point x="730" y="928" type="curve" smooth="yes"/>
      <point x="730" y="950"/>
      <point x="712" y="968"/>
      <point x="690" y="968" type="curve" smooth="yes"/>
      <point x="90" y="968" type="line" smooth="yes"/>
      <point x="68" y="968"/>
      <point x="50" y="950"/>
    </contour>
    <contour>
      <point x="690" y="-44" type="curve" smooth="yes"/>
      <point x="712" y="-44"/>
      <point x="730" y="-26"/>
      <point x="730" y="-4" type="curve" smooth="yes"/>
      <point x="730" y="360" type="line" smooth="yes"/>
      <point x="730" y="369"/>
      <point x="725" y="381"/>
      <point x="719" y="388" type="curve" smooth="yes"/>
      <point x="317" y="823" type="line" smooth="yes"/>
      <point x="295" y="847"/>
      <point x="260" y="840"/>
      <point x="250" y="808" type="curve" smooth="yes"/>
      <point x="64" y="238" type="line" smooth="yes"/>
      <point x="54" y="207"/>
      <point x="78" y="180"/>
      <point x="110" y="187" type="curve" smooth="yes"/>
      <point x="650" y="297" type="line"/>
      <point x="650" y="-4" type="line" smooth="yes"/>
      <point x="650" y="-26"/>
      <point x="668" y="-44"/>
    </contour>
    <contour>
      <point x="162" y="279" type="line"/>
      <point x="305" y="719" type="line"/>
      <point x="624" y="373" type="line"/>
    </contour>
  </outline>
</glyph>
<glyph name="ccedilla" format="1">
  <advance width="774"/>
  <unicode hex="00E7"/>
  <outline>
    <contour>
      <point x="274" y="77" type="curve" smooth="yes"/>
      <point x="692" y="162" type="line" smooth="yes"/>
      <point x="713" y="166"/>
      <point x="727" y="188"/>
      <point x="723" y="209" type="curve" smooth="yes"/>
      <point x="719" y="230"/>
      <point x="697" y="244"/>
      <point x="676" y="240" type="curve" smooth="yes"/>
      <point x="293" y="163" type="line"/>
      <point x="147" y="638" type="line"/>
      <point x="678" y="561" type="line" smooth="yes"/>
      <point x="700" y="558"/>
      <point x="720" y="574"/>
      <point x="724" y="595" type="curve" smooth="yes"/>
      <point x="727" y="617"/>
      <point x="711" y="637"/>
      <point x="690" y="641" type="curve" smooth="yes"/>
      <point x="96" y="727" type="line" smooth="yes"/>
      <point x="65" y="731"/>
      <point x="43" y="705"/>
      <point x="52" y="675" type="curve" smooth="yes"/>
      <point x="228" y="104" type="line" smooth="yes"/>
      <point x="234" y="85"/>
      <point x="254" y="73"/>
    </contour>
  </outline>
</glyph>
<glyph name="ecircumflex" format="1">
  <advance width="785"/>
  <unicode hex="00EA"/>
  <outline>
    <contour>
      <point x="50" y="928" type="curve" smooth="yes"/>
      <point x="50" y="906"/>
      <point x="68" y="888"/>
      <point x="90" y="888" type="curve" smooth="yes"/>
      <point x="690" y="888" type="line" smooth="yes"/>
      <point x="712" y="888"/>
      <point x="730" y="906"/>
      <point x="730" y="928" type="curve" smooth="yes"/>
      <point x="730" y="950"/>
      <point x="712" y="968"/>
      <point x="690" y="968" type="curve" smooth="yes"/>
      <point x="90" y="968" type="line" smooth="yes"/>
      <point x="68" y="968"/>
      <point x="50" y="950"/>
    </contour>
    <contour>
      <point x="525" y="-28" type="curve" smooth="yes"/>
      <point x="723" y="168" type="line" smooth="yes"/>
      <point x="738" y="183"/>
      <point x="739" y="209"/>
      <point x="723" y="224" type="curve" smooth="yes"/>
      <point x="708" y="239"/>
      <point x="682" y="240"/>
      <point x="667" y="224" type="curve" smooth="yes"/>
      <point x="497" y="56" type="line"/>
      <point x="216" y="344" type="line"/>
      <point x="710" y="565" type="line" smooth="yes"/>
      <point x="730" y="574"/>
      <point x="739" y="599"/>
      <point x="731" y="618" type="curve" smooth="yes"/>
      <point x="722" y="638"/>
      <point x="697" y="647"/>
      <point x="678" y="639" type="curve" smooth="yes"/>
      <point x="131" y="394" type="line" smooth="yes"/>
      <point x="104" y="382"/>
      <point x="98" y="351"/>
      <point x="118" y="329" type="curve" smooth="yes"/>
      <point x="466" y="-28" type="line" smooth="yes"/>
      <point x="474" y="-36"/>
      <point x="485" y="-40"/>
      <point x="495" y="-40" type="curve"/>
      <point x="506" y="-40"/>
      <point x="517" y="-36"/>
    </contour>
  </outline>
</glyph>
<glyph name="ntilde" format="1">
  <advance width="784"/>
  <unicode hex="00F1"/>
  <outline>
    <contour>
      <point x="101" y="889" type="curve" smooth="yes"/>
      <point x="689" y="989" type="line" smooth="yes"/>
      <point x="705" y="991"/>
      <point x="720" y="1007"/>
      <point x="722" y="1023" type="curve" smooth="yes"/>
      <point x="734" y="1123" type="line" smooth="yes"/>
      <point x="736" y="1145"/>
      <point x="720" y="1165"/>
      <point x="699" y="1168" type="curve" smooth="yes"/>
      <point x="677" y="1170"/>
      <point x="657" y="1154"/>
      <point x="654" y="1133" type="curve" smooth="yes"/>
      <point x="646" y="1062" type="line"/>
      <point x="87" y="967" type="line" smooth="yes"/>
      <point x="66" y="964"/>
      <point x="51" y="943"/>
      <point x="55" y="921" type="curve" smooth="yes"/>
      <point x="58" y="900"/>
      <point x="79" y="885"/>
    </contour>
    <contour>
      <point x="130" y="-1" type="curve" smooth="yes"/>
      <point x="130" y="169" type="line"/>
      <point x="377" y="623" type="line"/>
      <point x="656" y="178" type="line" smooth="yes"/>
      <point x="679" y="141"/>
      <point x="730" y="156"/>
      <point x="730" y="199" type="curve" smooth="yes"/>
      <point x="730" y="799" type="line" smooth="yes"/>
      <point x="730" y="821"/>
      <point x="712" y="839"/>
      <point x="690" y="839" type="curve" smooth="yes"/>
      <point x="668" y="839"/>
      <point x="650" y="821"/>
      <point x="650" y="799" type="curve" smooth="yes"/>
      <point x="650" y="338" type="line"/>
      <point x="408" y="723" type="line" smooth="yes"/>
      <point x="391" y="751"/>
      <point x="355" y="750"/>
      <point x="339" y="721" type="curve" smooth="yes"/>
      <point x="55" y="198" type="line" smooth="yes"/>
      <point x="52" y="193"/>
      <point x="50" y="185"/>
      <point x="50" y="179" type="curve" smooth="yes"/>
      <point x="50" y="-1" type="line" smooth="yes"/>
      <point x="50" y="-23"/>
      <point x="68" y="-41"/>
      <point x="90" y="-41" type="curve" smooth="yes"/>
      <point x="112" y="-41"/>
      <point x="130" y="-23"/>
    </contour>
  </outline>
</glyph>
<glyph name="ocircumflex" format="1">
  <advance width="781"/>
  <unicode hex="00F4"/>
  <outline>
    <contour>
      <point x="50" y="928" type="curve" smooth="yes"/>
      <point x="50" y="906"/>
      <point x="68" y="888"/>
      <point x="90" y="888" type="curve" smooth="yes"/>
      <point x="690" y="888" type="line" smooth="yes"/>
      <point x="712" y="888"/>
      <point x="730" y="906"/>
      <point x="730" y="928" type="curve" smooth="yes"/>
      <point x="730" y="950"/>
      <point x="712" y="968"/>
      <point x="690" y="968" type="curve" smooth="yes"/>
      <point x="90" y="968" type="line" smooth="yes"/>
      <point x="68" y="968"/>
      <point x="50" y="950"/>
    </contour>
    <contour>
      <point x="469" y="47" type="line"/>
      <point x="134" y="167" type="line"/>
      <point x="158" y="683" type="line"/>
      <point x="639" y="533" type="line"/>
    </contour>
    <contour>
      <point x="532" y="-14" type="curve" smooth="yes"/>
      <point x="729" y="546" type="line" smooth="yes"/>
      <point x="736" y="567"/>
      <point x="725" y="590"/>
      <point x="703" y="597" type="curve" smooth="yes"/>
      <point x="132" y="774" type="line" smooth="yes"/>
      <point x="106" y="783"/>
      <point x="81" y="766"/>
      <point x="80" y="738" type="curve" smooth="yes"/>
      <point x="53" y="142" type="line" smooth="yes"/>
      <point x="52" y="125"/>
      <point x="64" y="108"/>
      <point x="79" y="102" type="curve" smooth="yes"/>
      <point x="470" y="-39" type="line" smooth="yes"/>
      <point x="476" y="-41"/>
      <point x="482" y="-41"/>
      <point x="488" y="-40" type="curve"/>
      <point x="507" y="-43"/>
      <point x="525" y="-32"/>
    </contour>
  </outline>
</glyph>
<glyph name="oslash" format="1">
  <advance width="780"/>
  <unicode hex="00F8"/>
  <outline>
    <contour>
      <point x="227" y="251" type="line"/>
      <point x="159" y="280" type="line"/>
      <point x="456" y="597" type="line"/>
      <point x="455" y="554" type="line"/>
    </contour>
    <contour>
      <point x="446" y="157" type="line"/>
      <point x="303" y="218" type="line"/>
      <point x="452" y="417" type="line"/>
    </contour>
    <contour>
      <point x="122" y="-23" type="curve" smooth="yes"/>
      <point x="253" y="152" type="line"/>
      <point x="459" y="64" type="line" smooth="yes"/>
      <point x="466" y="61"/>
      <point x="473" y="61"/>
      <point x="479" y="61" type="curve"/>
      <point x="484" y="61" type="line" smooth="yes"/>
      <point x="506" y="61"/>
      <point x="525" y="79"/>
      <point x="525" y="100" type="curve" smooth="yes"/>
      <point x="534" y="527" type="line"/>
      <point x="722" y="777" type="line" smooth="yes"/>
      <point x="735" y="794"/>
      <point x="731" y="820"/>
      <point x="714" y="833" type="curve" smooth="yes"/>
      <point x="697" y="846"/>
      <point x="671" y="842"/>
      <point x="658" y="825" type="curve" smooth="yes"/>
      <point x="537" y="664" type="line"/>
      <point x="538" y="700" type="line" smooth="yes"/>
      <point x="539" y="740"/>
      <point x="496" y="757"/>
      <point x="469" y="728" type="curve" smooth="yes"/>
      <point x="61" y="293" type="line" smooth="yes"/>
      <point x="41" y="271"/>
      <point x="48" y="240"/>
      <point x="75" y="229" type="curve" smooth="yes"/>
      <point x="178" y="185" type="line"/>
      <point x="58" y="25" type="line" smooth="yes"/>
      <point x="45" y="8"/>
      <point x="49" y="-18"/>
      <point x="66" y="-31" type="curve" smooth="yes"/>
      <point x="83" y="-44"/>
      <point x="109" y="-40"/>
    </contour>
  </outline>
</glyph>
<glyph name="ugrave" format="1">
  <advance width="779"/>
  <unicode hex="00F9"/>
  <outline>
    <contour>
      <point x="424" y="906" type="curve" smooth="yes"/>
      <point x="436" y="924"/>
      <point x="431" y="949"/>
      <point x="413" y="961" type="curve" smooth="yes"/>
      <point x="113" y="1161" type="line" smooth="yes"/>
      <point x="95" y="1173"/>
      <point x="70" y="1168"/>
      <point x="58" y="1150" type="curve" smooth="yes"/>
      <point x="46" y="1132"/>
      <point x="51" y="1107"/>
      <point x="69" y="1095" type="curve" smooth="yes"/>
      <point x="369" y="895" type="line" smooth="yes"/>
      <point x="387" y="883"/>
      <point x="412" y="888"/>
    </contour>
    <contour>
      <point x="729" y="199" type="curve" smooth="yes"/>
      <point x="729" y="799" type="line" smooth="yes"/>
      <point x="729" y="821"/>
      <point x="711" y="839"/>
      <point x="689" y="839" type="curve" smooth="yes"/>
      <point x="667" y="839"/>
      <point x="649" y="821"/>
      <point x="649" y="799" type="curve" smooth="yes"/>
      <point x="649" y="241" type="line"/>
      <point x="130" y="267" type="line"/>
      <point x="130" y="799" type="line" smooth="yes"/>
      <point x="130" y="821"/>
      <point x="112" y="839"/>
      <point x="90" y="839" type="curve" smooth="yes"/>
      <point x="68" y="839"/>
      <point x="50" y="821"/>
      <point x="50" y="799" type="curve" smooth="yes"/>
      <point x="50" y="229" type="line" smooth="yes"/>
      <point x="50" y="208"/>
      <point x="67" y="190"/>
      <point x="88" y="189" type="curve" smooth="yes"/>
      <point x="687" y="159" type="line" smooth="yes"/>
      <point x="710" y="158"/>
      <point x="729" y="176"/>
    </contour>
  </outline>
</glyph>
<glyph name="circumflex" format="1">
  <advance width="780"/>
  <unicode hex="02C6"/>
  <outline>
    <contour>
      <point x="50" y="928" type="curve" smooth="yes"/>
      <point x="50" y="906"/>
      <point x="68" y="888"/>
      <point x="90" y="888" type="curve" smooth="yes"/>
      <point x="690" y="888" type="line" smooth="yes"/>
      <point x="712" y="888"/>
      <point x="730" y="906"/>
      <point x="730" y="928" type="curve" smooth="yes"/>
      <point x="730" y="950"/>
      <point x="712" y="968"/>
      <point x="690" y="968" type="curve" smooth="yes"/>
      <point x="90" y="968" type="line" smooth="yes"/>
      <point x="68" y="968"/>
      <point x="50" y="950"/>
    </contour>
  </outline>
</glyph>
<glyph name="tilde" format="1">
  <advance width="780"/>
  <unicode hex="02DC"/>
  <outline>
    <contour>
      <point x="97" y="889" type="curve" smooth="yes"/>
      <point x="685" y="989" type="line" smooth="yes"/>
      <point x="701" y="991"/>
      <point x="716" y="1007"/>
      <point x="718" y="1023" type="curve" smooth="yes"/>
      <point x="730" y="1123" type="line" smooth="yes"/>
      <point x="732" y="1145"/>
      <point x="716" y="1165"/>
      <point x="695" y="1168" type="curve" smooth="yes"/>
      <point x="673" y="1170"/>
      <point x="653" y="1154"/>
      <point x="650" y="1133" type="curve" smooth="yes"/>
      <point x="642" y="1062" type="line"/>
      <point x="83" y="967" type="line" smooth="yes"/>
      <point x="62" y="964"/>
      <point x="47" y="943"/>
      <point x="51" y="921" type="curve" smooth="yes"/>
      <point x="54" y="900"/>
      <point x="75" y="885"/>
    </contour>
  </outline>
</glyph>
<glyph name="emdash" format="1">
  <advance width="580"/>
  <unicode hex="2014"/>
  <outline>
    <contour>
      <point x="50" y="272" type="curve" smooth="yes"/>
      <point x="50" y="250"/>
      <point x="68" y="232"/>
      <point x="90" y="232" type="curve" smooth="yes"/>
      <point x="490" y="232" type="line" smooth="yes"/>
      <point x="512" y="232"/>
      <point x="530" y="250"/>
      <point x="530" y="272" type="curve" smooth="yes"/>
      <point x="530" y="294"/>
      <point x="512" y="312"/>
      <point x="490" y="312" type="curve" smooth="yes"/>
      <point x="90" y="312" type="line" smooth="yes"/>
      <point x="68" y="312"/>
      <point x="50" y="294"/>
    </contour>
  </outline>
</glyph>
<glyph name="quoteleft" format="1">
  <advance width="279"/>
  <unicode hex="2018"/>
  <outline>
    <contour>
      <point x="72" y="568" type="curve" smooth="yes"/>
      <point x="91" y="559"/>
      <point x="116" y="567"/>
      <point x="126" y="586" type="curve" smooth="yes"/>
      <point x="226" y="786" type="line" smooth="yes"/>
      <point x="235" y="805"/>
      <point x="227" y="830"/>
      <point x="208" y="840" type="curve" smooth="yes"/>
      <point x="189" y="849"/>
      <point x="164" y="841"/>
      <point x="154" y="822" type="curve" smooth="yes"/>
      <point x="54" y="622" type="line" smooth="yes"/>
      <point x="45" y="603"/>
      <point x="53" y="578"/>
    </contour>
  </outline>
</glyph>
